<svg class="main-svg" xmlns="http://www.w3.org/2000/svg" xmlns:xlink="http://www.w3.org/1999/xlink" width="700" height="500" style="" viewBox="0 0 700 500"><rect x="0" y="0" width="700" height="500" style="fill: rgb(255, 255, 255); fill-opacity: 1;"/><defs id="defs-5c2bee"><g class="clips"><clipPath id="clip5c2beexyplot" class="plotclip"><rect width="514" height="464"/></clipPath><clipPath class="axesclip" id="clip5c2beex"><rect x="24" y="0" width="514" height="500"/></clipPath><clipPath class="axesclip" id="clip5c2beey"><rect x="0" y="10" width="700" height="464"/></clipPath><clipPath class="axesclip" id="clip5c2beexy"><rect x="24" y="10" width="514" height="464"/></clipPath></g><g class="gradients"/><g class="patterns"/></defs><g class="bglayer"><rect class="bg" x="24" y="10" width="514" height="464" style="fill: rgb(229, 236, 246); fill-opacity: 1; stroke-width: 0;"/></g><g class="layer-below"><g class="imagelayer"/><g class="shapelayer"/></g><g class="cartesianlayer"><g class="subplot xy"><g class="layer-subplot"><g class="shapelayer"/><g class="imagelayer"/></g><g class="gridlayer"><g class="x"><path class="xgrid crisp" transform="translate(125.15,0)" d="M0,10v464" style="stroke: rgb(255, 255, 255); stroke-opacity: 1; stroke-width: 1px;"/><path class="xgrid crisp" transform="translate(228.36,0)" d="M0,10v464" style="stroke: rgb(255, 255, 255); stroke-opacity: 1; stroke-width: 1px;"/><path class="xgrid crisp" transform="translate(331.57,0)" d="M0,10v464" style="stroke: rgb(255, 255, 255); stroke-opacity: 1; stroke-width: 1px;"/><path class="xgrid crisp" transform="translate(434.79,0)" d="M0,10v464" style="stroke: rgb(255, 255, 255); stroke-opacity: 1; stroke-width: 1px;"/></g><g class="y"><path class="ygrid crisp" transform="translate(0,395.87)" d="M24,0h514" style="stroke: rgb(255, 255, 255); stroke-opacity: 1; stroke-width: 1px;"/><path class="ygrid crisp" transform="translate(0,332.95)" d="M24,0h514" style="stroke: rgb(255, 255, 255); stroke-opacity: 1; stroke-width: 1px;"/><path class="ygrid crisp" transform="translate(0,270.04)" d="M24,0h514" style="stroke: rgb(255, 255, 255); stroke-opacity: 1; stroke-width: 1px;"/><path class="ygrid crisp" transform="translate(0,207.12)" d="M24,0h514" style="stroke: rgb(255, 255, 255); stroke-opacity: 1; stroke-width: 1px;"/><path class="ygrid crisp" transform="translate(0,144.21)" d="M24,0h514" style="stroke: rgb(255, 255, 255); stroke-opacity: 1; stroke-width: 1px;"/><path class="ygrid crisp" transform="translate(0,81.29)" d="M24,0h514" style="stroke: rgb(255, 255, 255); stroke-opacity: 1; stroke-width: 1px;"/><path class="ygrid crisp" transform="translate(0,18.380000000000003)" d="M24,0h514" style="stroke: rgb(255, 255, 255); stroke-opacity: 1; stroke-width: 1px;"/></g></g><g class="zerolinelayer"><path class="yzl zl crisp" transform="translate(0,458.78)" d="M24,0h514" style="stroke: rgb(255, 255, 255); stroke-opacity: 1; stroke-width: 2px;"/></g><path class="xlines-below"/><path class="ylines-below"/><g class="overlines-below"/><g class="xaxislayer-below"/><g class="yaxislayer-below"/><g class="overaxes-below"/><g class="plot" transform="translate(24,10)" clip-path="url(#clip5c2beexyplot)"><g class="scatterlayer mlayer"><g class="trace scatter tracefae9f3" style="stroke-miterlimit: 2; opacity: 1;"><g class="fills"><g><path class="js-fill" d="M0,393.68L2.06,408.92L4.13,409.3L12.39,392.48L14.45,385.58L16.51,379.01L18.58,369.17L24.77,332.96L26.84,320.01L33.03,275.85L35.09,261.72L39.22,234.01L41.29,218.97L49.54,164.66L51.61,157.38L63.99,117.31L66.06,112.72L68.12,108.74L70.18,102.17L74.31,91.67L76.38,88.54L78.44,86.97L80.51,81.56L82.57,76.93L84.63,74.57L88.76,69.11L90.83,67.78L92.89,67.45L94.96,65.85L99.08,62.07L101.15,58.24L107.34,55.41L109.41,53.39L113.53,51.12L115.6,48.81L119.73,44.74L121.79,45.81L125.92,45.98L127.98,44.79L130.05,44.54L132.11,43.36L136.24,40.55L138.31,40.05L140.37,40.52L142.43,39.67L154.82,40.73L156.88,40.6L158.95,40.9L161.01,39.76L163.08,39.45L165.14,38.16L169.27,36.45L171.33,34.73L175.46,31.85L177.53,30.66L187.85,30.76L189.91,30L191.98,30.46L194.04,29.88L200.23,29.04L202.3,28.36L214.68,27.75L216.75,27L227.07,26.96L229.13,27.39L231.2,27.72L233.26,26.82L235.33,28.4L237.39,28.65L239.45,27.8L241.52,28.01L245.65,29.14L247.71,28.86L251.84,28.96L253.9,27.91L260.1,27.72L262.16,26.51L266.29,26.81L268.35,26.71L272.48,26.53L274.55,26.07L280.74,25.78L282.8,25.7L289,26.47L291.06,25.81L301.38,24.98L303.45,25L309.64,24.29L311.7,25.76L315.83,24.46L317.9,24.96L319.96,25.28L322.02,24.65L326.15,25.54L328.22,26.18L332.35,25.38L334.41,25.34L342.67,24.3L344.73,24.54L350.92,25.12L352.99,24.7L361.24,25.38L363.31,24.84L367.44,26.02L369.5,24.96L373.63,24.46L375.69,25.16L377.76,24.02L379.82,24.81L381.89,24.49L383.95,25.69L398.4,25.58L400.47,26.2L404.59,26.87L406.66,26.7L429.37,24.86L431.43,24.3L435.56,25.15L437.62,24.7L439.69,25.24L441.75,24.84L443.82,25.78L445.88,24.68L454.14,23.86L456.2,24.14L464.46,23.2L466.52,23.85L468.59,24.53L470.65,23.94L474.78,24.22L476.84,23.8L480.97,24.12L483.04,24.63L485.1,23.96L487.16,24.62L495.42,23.81L497.49,24.74L501.61,24.44L503.68,24.84L509.87,24.11L511.94,25.08L514,24.97L514,217.5L507.81,216.96L505.74,217.23L503.68,215.42L501.61,217.42L499.55,218.26L497.49,217.9L493.36,219.94L491.29,218.48L489.23,220.76L487.16,219.6L485.1,220.29L483.04,218.48L480.97,218.85L478.91,218L474.78,218.31L472.71,219.41L468.59,218.84L466.52,218.31L464.46,220L462.39,217.46L458.27,215.48L456.2,215.55L454.14,214.75L452.07,215.24L447.94,220.03L445.88,219.98L443.82,220.7L441.75,219.88L439.69,219.13L437.62,220L435.56,218.72L433.49,220.07L431.43,220.57L429.37,221.96L427.3,223.82L425.24,222.9L421.11,222.62L419.04,222.63L416.98,224.8L414.92,224.89L412.85,223.14L410.79,225.97L406.66,226.41L404.59,227.52L402.53,225.86L400.47,225.97L398.4,224.68L396.34,225L394.27,223.09L392.21,223.41L390.14,222.27L388.08,222.07L386.02,221.32L383.95,219.46L379.82,217.19L377.76,216.2L375.69,215.36L373.63,217.12L371.57,217.75L369.5,219.34L367.44,218.1L365.37,219.21L361.24,219.23L359.18,219.11L352.99,217.52L350.92,216.69L346.8,216.74L344.73,217.75L340.6,216.06L338.54,216.4L336.47,216.93L334.41,216.08L332.35,218.02L330.28,217.41L328.22,217.04L326.15,217.9L324.09,219.73L322.02,219.31L319.96,217.46L317.9,218.38L315.83,217.87L313.77,218.37L311.7,218.25L309.64,219.05L307.57,217.64L305.51,217.89L299.32,216.54L297.25,217.48L295.19,218.1L293.12,217.44L289,220.19L286.93,220.71L284.87,221.43L282.8,220.51L280.74,220.88L278.67,218.76L276.61,221.09L274.55,221.56L272.48,221.29L270.42,222.88L268.35,222.33L266.29,223.73L264.22,223.38L262.16,225.89L260.1,225.22L258.03,226.39L253.9,228.95L251.84,228.57L249.78,229.38L247.71,231.16L245.65,229.7L243.58,230.13L237.39,228.84L235.33,228.21L231.2,225.91L229.13,222.57L227.07,222.93L225,221.26L216.75,222.9L214.68,224.07L210.55,224.07L208.49,225.2L206.43,224.53L204.36,225.09L202.3,224.98L200.23,227.78L196.1,229.67L194.04,231.25L191.98,232.9L189.91,233.2L185.78,234.24L183.72,235.64L181.65,235.89L179.59,239.02L175.46,242.32L173.4,246.84L171.33,249.55L169.27,254.39L167.2,255.85L165.14,259.17L161.01,262.42L158.95,262.75L150.69,259.82L148.63,257.63L146.56,256.08L144.5,253.34L138.31,248.46L136.24,249.76L130.05,252.86L127.98,256.08L125.92,254.28L123.86,259.43L121.79,260.01L119.73,259.39L115.6,266.39L113.53,267.4L111.47,271.45L109.41,273.16L107.34,275.01L105.28,278.34L103.21,278.19L101.15,282.82L94.96,290.51L92.89,290.14L90.83,290.48L88.76,292.87L86.7,294.48L84.63,298.2L80.51,305.05L78.44,309.45L74.31,314.78L72.25,320.25L61.93,355.36L59.86,359.44L55.73,370.81L53.67,377.51L47.48,397.84L45.41,404.42L41.29,418.47L39.22,422.65L35.09,429.31L33.03,432.36L30.96,434.07L28.9,437.09L26.84,436.93L24.77,437.72L22.71,437.71L20.64,436.64L16.51,433.1L14.45,432.84L10.32,430.8L8.26,432.67L4.13,432.61L2.06,433.75L0,436.87Z" style="fill: rgb(161, 215, 106); fill-opacity: 0.5; stroke-width: 0;"/></g></g><g class="errorbars"/><g class="lines"><path class="js-line" d="M0,393.68L2.06,408.92L4.13,409.3L12.39,392.48L14.45,385.58L16.51,379.01L18.58,369.17L24.77,332.96L26.84,320.01L33.03,275.85L35.09,261.72L39.22,234.01L41.29,218.97L49.54,164.66L51.61,157.38L63.99,117.31L66.06,112.72L68.12,108.74L70.18,102.17L74.31,91.67L76.38,88.54L78.44,86.97L80.51,81.56L82.57,76.93L84.63,74.57L88.76,69.11L90.83,67.78L92.89,67.45L94.96,65.85L99.08,62.07L101.15,58.24L107.34,55.41L109.41,53.39L113.53,51.12L115.6,48.81L119.73,44.74L121.79,45.81L125.92,45.98L127.98,44.79L130.05,44.54L132.11,43.36L136.24,40.55L138.31,40.05L140.37,40.52L142.43,39.67L154.82,40.73L156.88,40.6L158.95,40.9L161.01,39.76L163.08,39.45L165.14,38.16L169.27,36.45L171.33,34.73L175.46,31.85L177.53,30.66L187.85,30.76L189.91,30L191.98,30.46L194.04,29.88L200.23,29.04L202.3,28.36L214.68,27.75L216.75,27L227.07,26.96L229.13,27.39L231.2,27.72L233.26,26.82L235.33,28.4L237.39,28.65L239.45,27.8L241.52,28.01L245.65,29.14L247.71,28.86L251.84,28.96L253.9,27.91L260.1,27.72L262.16,26.51L266.29,26.81L268.35,26.71L272.48,26.53L274.55,26.07L280.74,25.78L282.8,25.7L289,26.47L291.06,25.81L301.38,24.98L303.45,25L309.64,24.29L311.7,25.76L315.83,24.46L317.9,24.96L319.96,25.28L322.02,24.65L326.15,25.54L328.22,26.18L332.35,25.38L334.41,25.34L342.67,24.3L344.73,24.54L350.92,25.12L352.99,24.7L361.24,25.38L363.31,24.84L367.44,26.02L369.5,24.96L373.63,24.46L375.69,25.16L377.76,24.02L379.82,24.81L381.89,24.49L383.95,25.69L398.4,25.58L400.47,26.2L404.59,26.87L406.66,26.7L429.37,24.86L431.43,24.3L435.56,25.15L437.62,24.7L439.69,25.24L441.75,24.84L443.82,25.78L445.88,24.68L454.14,23.86L456.2,24.14L464.46,23.2L466.52,23.85L468.59,24.53L470.65,23.94L474.78,24.22L476.84,23.8L480.97,24.12L483.04,24.63L485.1,23.96L487.16,24.62L495.42,23.81L497.49,24.74L501.61,24.44L503.68,24.84L509.87,24.11L511.94,25.08L514,24.97L514,217.5L507.81,216.96L505.74,217.23L503.68,215.42L501.61,217.42L499.55,218.26L497.49,217.9L493.36,219.94L491.29,218.48L489.23,220.76L487.16,219.6L485.1,220.29L483.04,218.48L480.97,218.85L478.91,218L474.78,218.31L472.71,219.41L468.59,218.84L466.52,218.31L464.46,220L462.39,217.46L458.27,215.48L456.2,215.55L454.14,214.75L452.07,215.24L447.94,220.03L445.88,219.98L443.82,220.7L441.75,219.88L439.69,219.13L437.62,220L435.56,218.72L433.49,220.07L431.43,220.57L429.37,221.96L427.3,223.82L425.24,222.9L421.11,222.62L419.04,222.63L416.98,224.8L414.92,224.89L412.85,223.14L410.79,225.97L406.66,226.41L404.59,227.52L402.53,225.86L400.47,225.97L398.4,224.68L396.34,225L394.27,223.09L392.21,223.41L390.14,222.27L388.08,222.07L386.02,221.32L383.95,219.46L379.82,217.19L377.76,216.2L375.69,215.36L373.63,217.12L371.57,217.75L369.5,219.34L367.44,218.1L365.37,219.21L361.24,219.23L359.18,219.11L352.99,217.52L350.92,216.69L346.8,216.74L344.73,217.75L340.6,216.06L338.54,216.4L336.47,216.93L334.41,216.08L332.35,218.02L330.28,217.41L328.22,217.04L326.15,217.9L324.09,219.73L322.02,219.31L319.96,217.46L317.9,218.38L315.83,217.87L313.77,218.37L311.7,218.25L309.64,219.05L307.57,217.64L305.51,217.89L299.32,216.54L297.25,217.48L295.19,218.1L293.12,217.44L289,220.19L286.93,220.71L284.87,221.43L282.8,220.51L280.74,220.88L278.67,218.76L276.61,221.09L274.55,221.56L272.48,221.29L270.42,222.88L268.35,222.33L266.29,223.73L264.22,223.38L262.16,225.89L260.1,225.22L258.03,226.39L253.9,228.95L251.84,228.57L249.78,229.38L247.71,231.16L245.65,229.7L243.58,230.13L237.39,228.84L235.33,228.21L231.2,225.91L229.13,222.57L227.07,222.93L225,221.26L216.75,222.9L214.68,224.07L210.55,224.07L208.49,225.2L206.43,224.53L204.36,225.09L202.3,224.98L200.23,227.78L196.1,229.67L194.04,231.25L191.98,232.9L189.91,233.2L185.78,234.24L183.72,235.64L181.65,235.89L179.59,239.02L175.46,242.32L173.4,246.84L171.33,249.55L169.27,254.39L167.2,255.85L165.14,259.17L161.01,262.42L158.95,262.75L150.69,259.82L148.63,257.63L146.56,256.08L144.5,253.34L138.31,248.46L136.24,249.76L130.05,252.86L127.98,256.08L125.92,254.28L123.86,259.43L121.79,260.01L119.73,259.39L115.6,266.39L113.53,267.4L111.47,271.45L109.41,273.16L107.34,275.01L105.28,278.34L103.21,278.19L101.15,282.82L94.96,290.51L92.89,290.14L90.83,290.48L88.76,292.87L86.7,294.48L84.63,298.2L80.51,305.05L78.44,309.45L74.31,314.78L72.25,320.25L61.93,355.36L59.86,359.44L55.73,370.81L53.67,377.51L47.48,397.84L45.41,404.42L41.29,418.47L39.22,422.65L35.09,429.31L33.03,432.36L30.96,434.07L28.9,437.09L26.84,436.93L24.77,437.72L22.71,437.71L20.64,436.64L16.51,433.1L14.45,432.84L10.32,430.8L8.26,432.67L4.13,432.61L2.06,433.75L0,436.87" style="vector-effect: non-scaling-stroke; fill: none; stroke: rgb(161, 215, 106); stroke-opacity: 0.5; stroke-width: 2px; opacity: 1;"/></g><g class="points"/><g class="text"/></g><g class="trace scatter trace53f706" style="stroke-miterlimit: 2; opacity: 1;"><g class="fills"/><g class="errorbars"/><g class="lines"><path class="js-line" d="M0,415.27L2.06,421.33L4.13,420.96L12.39,411.97L14.45,409.21L18.58,402.06L20.64,397.51L26.84,378.47L28.9,370.21L41.29,318.72L43.35,309.07L49.54,277.54L51.61,270.46L66.06,226.5L68.12,221.92L74.31,203.22L76.38,200.22L78.44,198.21L80.51,193.31L84.63,186.39L86.7,182.82L90.83,179.13L92.89,178.8L94.96,178.18L97.02,175.91L101.15,170.53L103.21,167.68L105.28,167.41L107.34,165.21L117.66,155.11L119.73,152.07L121.79,152.91L123.86,152.8L125.92,150.13L127.98,150.44L132.11,147.47L134.18,146.46L138.31,144.26L140.37,145.58L142.43,145.68L144.5,146.64L150.69,150.21L152.76,150.85L158.95,151.82L161.01,151.09L165.14,148.66L167.2,146.72L169.27,145.42L171.33,142.14L173.4,140.26L175.46,137.08L179.59,134.85L181.65,133.33L191.98,131.68L194.04,130.57L200.23,128.41L202.3,126.67L210.55,126.14L212.62,126.14L216.75,124.95L218.81,124.58L225,124.12L227.07,124.95L229.13,124.98L231.2,126.82L233.26,127.02L235.33,128.3L243.58,129.53L245.65,129.42L247.71,130.01L249.78,129.07L255.97,127.96L258.03,126.99L268.35,124.52L270.42,124.92L272.48,123.91L274.55,123.81L276.61,123.66L278.67,122.2L280.74,123.33L282.8,123.1L286.93,123.45L289,123.33L293.12,121.51L295.19,121.72L299.32,120.69L301.38,121.19L309.64,121.67L311.7,122L319.96,121.37L322.02,121.98L324.09,122.31L326.15,121.72L332.35,121.7L334.41,120.71L336.47,120.99L338.54,120.48L342.67,120.49L344.73,121.15L348.86,120.85L350.92,120.91L365.37,122.21L367.44,122.06L369.5,122.15L371.57,121.08L377.76,120.11L379.82,121L392.21,124.52L394.27,124.33L396.34,125.29L398.4,125.13L404.59,127.19L406.66,126.55L410.79,126.35L412.85,124.66L414.92,125.39L416.98,125.27L419.04,124.02L421.11,124.16L425.24,123.97L427.3,124.34L431.43,122.44L433.49,122.57L435.56,121.94L437.62,122.35L441.75,122.36L443.82,123.24L447.94,122.22L450.01,120.45L454.14,119.3L456.2,119.85L460.33,120.12L462.39,120.47L464.46,121.6L466.52,121.08L470.65,121.68L472.71,121.83L478.91,120.87L480.97,121.48L487.16,122.11L489.23,122.57L491.29,121.33L493.36,121.9L497.49,121.32L499.55,121.24L503.68,120.13L505.74,120.94L509.87,120.4L511.94,121.18L514,121.24" style="vector-effect: non-scaling-stroke; fill: none; stroke: rgb(77, 146, 33); stroke-opacity: 1; stroke-width: 2px; opacity: 1;"/></g><g class="points"/><g class="text"/></g><g class="trace scatter traceaa75b8" style="stroke-miterlimit: 2; opacity: 1;"><g class="fills"><g><path class="js-fill" d="M0,223.86L2.06,223.68L4.13,222.55L6.19,225.17L8.26,223.32L10.32,209.85L12.39,208.53L14.45,208.59L16.51,207.33L18.58,206.34L20.64,204.52L22.71,204.94L24.77,195.2L26.84,195.28L28.9,194.6L35.09,195.46L37.16,192.67L39.22,195.06L41.29,195.33L43.35,195.34L45.41,189.34L51.61,190.1L53.67,188.97L59.86,189.61L61.93,188.61L63.99,188.61L66.06,189.66L68.12,189.86L70.18,188.18L72.25,189.74L74.31,189.79L90.83,189.21L92.89,189.38L125.92,188.75L127.98,188.78L134.18,188.26L136.24,189.14L138.31,188.3L140.37,188.62L144.5,188.29L146.56,188.55L156.88,188.15L158.95,187.73L161.01,188.33L163.08,187.9L173.4,188.13L175.46,187.58L179.59,187.89L181.65,187.44L183.72,186.98L185.78,188.21L191.98,187.25L194.04,188.2L196.1,187.5L198.17,187.81L200.23,186.79L202.3,187.93L206.43,187.09L208.49,187L210.55,187.57L212.62,187.08L216.75,186.67L218.81,187.45L222.94,187.41L225,186.46L227.07,187.31L229.13,187.12L235.33,186.71L237.39,186.6L239.45,187.03L241.52,185.96L243.58,186.75L245.65,186.39L247.71,186.66L249.78,185.65L251.84,186.41L253.9,186.17L255.97,186.41L258.03,185.88L264.22,186.35L266.29,185.35L268.35,185.94L270.42,185.67L280.74,186.11L282.8,185.3L289,185.29L291.06,185.18L295.19,185.49L297.25,185.36L299.32,185.1L301.38,185.78L307.57,184.73L309.64,185.46L315.83,184.94L317.9,185.27L352.99,184.38L355.05,185.02L357.12,183.96L359.18,184.75L375.69,184.6L377.76,185.12L383.95,184.91L386.02,185.1L392.21,185L394.27,185.25L406.66,184.72L408.72,185.28L416.98,185.33L419.04,185.27L433.49,185.47L435.56,185.35L439.69,185.64L441.75,185.74L450.01,185.81L452.07,185.91L456.2,186.14L458.27,186.44L464.46,186L466.52,186.45L472.71,186.51L474.78,186.74L503.68,188.37L505.74,188.31L514,188.72L514,277.26L511.94,276.41L509.87,277.53L505.74,275.05L503.68,273.94L501.61,274.86L499.55,272.78L497.49,274.08L495.42,271.98L493.36,271.25L491.29,271.37L489.23,272.62L487.16,270.71L483.04,269.01L480.97,270.44L476.84,268.74L474.78,269.05L468.59,268.31L466.52,266.48L464.46,268.01L462.39,267.11L458.27,262.74L456.2,264.44L454.14,266.65L452.07,263.63L447.94,263.71L445.88,261.64L443.82,263.08L441.75,261.61L439.69,261.86L437.62,261.19L435.56,262.66L433.49,261.19L429.37,258.88L427.3,259.78L425.24,259.13L423.17,259.7L421.11,258.1L419.04,258.6L416.98,258.27L414.92,258.91L412.85,256.25L410.79,255.99L408.72,256.78L406.66,258.56L404.59,254.79L402.53,254.29L400.47,253.79L398.4,256.12L396.34,253.59L394.27,253.25L390.14,256.02L388.08,252.98L386.02,252.47L383.95,253.53L381.89,254.47L379.82,251.78L377.76,251.22L375.69,252.92L373.63,252.99L371.57,251.51L367.44,250.75L365.37,251.89L363.31,250.17L361.24,250.27L359.18,249.56L357.12,252.19L355.05,248.2L352.99,250.08L350.92,248.27L348.86,248.25L342.67,246.49L340.6,247.23L338.54,246.32L336.47,246.92L326.15,244.53L324.09,244.91L322.02,243.87L319.96,244.28L317.9,244.08L315.83,244.89L313.77,243.51L311.7,244.08L309.64,243.26L307.57,245.25L305.51,242.9L303.45,242.94L301.38,241.95L299.32,243.71L293.12,241.77L291.06,243.03L284.87,241.74L282.8,242.2L280.74,239.86L278.67,241.12L276.61,240.32L274.55,241.57L272.48,240.56L270.42,240.91L268.35,240.11L266.29,241.62L264.22,238.63L262.16,240.27L258.03,239.89L255.97,238.36L253.9,239.09L251.84,238.57L249.78,240.79L247.71,237.71L245.65,238.39L243.58,237.43L241.52,239.42L239.45,236.34L237.39,237.57L235.33,237.35L231.2,237.19L229.13,236.29L227.07,235.97L225,238.25L222.94,235.58L220.88,235.68L218.81,235.71L216.75,237.82L210.55,234.98L208.49,236.48L204.36,235.74L202.3,234.05L200.23,236.91L198.17,234.16L196.1,234.9L194.04,233.37L191.98,235.9L189.91,235.72L185.78,233.5L183.72,236.77L179.59,233.9L177.53,233.97L175.46,234.76L173.4,233.39L171.33,233.66L169.27,232.69L167.2,233.93L165.14,233.84L163.08,234.2L161.01,233.24L158.95,234.55L156.88,233.64L148.63,232.13L146.56,232.17L142.43,232.99L140.37,232.07L138.31,232.66L136.24,230.64L134.18,232.58L132.11,232.01L125.92,231.07L123.86,232.11L121.79,231.89L119.73,230.51L117.66,231.55L115.6,231.39L113.53,232.87L111.47,231.91L107.34,230.81L105.28,231.5L103.21,230.73L101.15,230.92L97.02,230.95L94.96,230.34L90.83,230.93L88.76,232.15L86.7,230.31L84.63,230.67L82.57,229.22L80.51,229.12L72.25,230.07L70.18,233.14L68.12,228.85L66.06,229.47L63.99,231.79L61.93,231.69L59.86,229.5L57.8,229.47L53.67,231.71L51.61,229.07L49.54,229.33L47.48,230.43L45.41,230.76L43.35,231.88L39.22,233.43L37.16,238.54L35.09,231.46L33.03,231.32L28.9,233.41L26.84,232L24.77,232.15L22.71,243.27L20.64,244.66L18.58,244.77L12.39,248.88L10.32,248.45L8.26,256.65L6.19,253.06L4.13,259.51L2.06,257.91L0,260.32Z" style="fill: rgb(233, 163, 201); fill-opacity: 0.5; stroke-width: 0;"/></g></g><g class="errorbars"/><g class="lines"><path class="js-line" d="M0,223.86L2.06,223.68L4.13,222.55L6.19,225.17L8.26,223.32L10.32,209.85L12.39,208.53L14.45,208.59L16.51,207.33L18.58,206.34L20.64,204.52L22.71,204.94L24.77,195.2L26.84,195.28L28.9,194.6L35.09,195.46L37.16,192.67L39.22,195.06L41.29,195.33L43.35,195.34L45.41,189.34L51.61,190.1L53.67,188.97L59.86,189.61L61.93,188.61L63.99,188.61L66.06,189.66L68.12,189.86L70.18,188.18L72.25,189.74L74.31,189.79L90.83,189.21L92.89,189.38L125.92,188.75L127.98,188.78L134.18,188.26L136.24,189.14L138.31,188.3L140.37,188.62L144.5,188.29L146.56,188.55L156.88,188.15L158.95,187.73L161.01,188.33L163.08,187.9L173.4,188.13L175.46,187.58L179.59,187.89L181.65,187.44L183.72,186.98L185.78,188.21L191.98,187.25L194.04,188.2L196.1,187.5L198.17,187.81L200.23,186.79L202.3,187.93L206.43,187.09L208.49,187L210.55,187.57L212.62,187.08L216.75,186.67L218.81,187.45L222.94,187.41L225,186.46L227.07,187.31L229.13,187.12L235.33,186.71L237.39,186.6L239.45,187.03L241.52,185.96L243.58,186.75L245.65,186.39L247.71,186.66L249.78,185.65L251.84,186.41L253.9,186.17L255.97,186.41L258.03,185.88L264.22,186.35L266.29,185.35L268.35,185.94L270.42,185.67L280.74,186.11L282.8,185.3L289,185.29L291.06,185.18L295.19,185.49L297.25,185.36L299.32,185.1L301.38,185.78L307.57,184.73L309.64,185.46L315.83,184.94L317.9,185.27L352.99,184.38L355.05,185.02L357.12,183.96L359.18,184.75L375.69,184.6L377.76,185.12L383.95,184.91L386.02,185.1L392.21,185L394.27,185.25L406.66,184.72L408.72,185.28L416.98,185.33L419.04,185.27L433.49,185.47L435.56,185.35L439.69,185.64L441.75,185.74L450.01,185.81L452.07,185.91L456.2,186.14L458.27,186.44L464.46,186L466.52,186.45L472.71,186.51L474.78,186.74L503.68,188.37L505.74,188.31L514,188.72L514,277.26L511.94,276.41L509.87,277.53L505.74,275.05L503.68,273.94L501.61,274.86L499.55,272.78L497.49,274.08L495.42,271.98L493.36,271.25L491.29,271.37L489.23,272.62L487.16,270.71L483.04,269.01L480.97,270.44L476.84,268.74L474.78,269.05L468.59,268.31L466.52,266.48L464.46,268.01L462.39,267.11L458.27,262.74L456.2,264.44L454.14,266.65L452.07,263.63L447.94,263.71L445.88,261.64L443.82,263.08L441.75,261.61L439.69,261.86L437.62,261.19L435.56,262.66L433.49,261.19L429.37,258.88L427.3,259.78L425.24,259.13L423.17,259.7L421.11,258.1L419.04,258.6L416.98,258.27L414.92,258.91L412.85,256.25L410.79,255.99L408.72,256.78L406.66,258.56L404.59,254.79L402.53,254.29L400.47,253.79L398.4,256.12L396.34,253.59L394.27,253.25L390.14,256.02L388.08,252.98L386.02,252.47L383.95,253.53L381.89,254.47L379.82,251.78L377.76,251.22L375.69,252.92L373.63,252.99L371.57,251.51L367.44,250.75L365.37,251.89L363.31,250.17L361.24,250.27L359.18,249.56L357.12,252.19L355.05,248.2L352.99,250.08L350.92,248.27L348.86,248.25L342.67,246.49L340.6,247.23L338.54,246.32L336.47,246.92L326.15,244.53L324.09,244.91L322.02,243.87L319.96,244.28L317.9,244.08L315.83,244.89L313.77,243.51L311.7,244.08L309.64,243.26L307.57,245.25L305.51,242.9L303.45,242.94L301.38,241.95L299.32,243.71L293.12,241.77L291.06,243.03L284.87,241.74L282.8,242.2L280.74,239.86L278.67,241.12L276.61,240.32L274.55,241.57L272.48,240.56L270.42,240.91L268.35,240.11L266.29,241.62L264.22,238.63L262.16,240.27L258.03,239.89L255.97,238.36L253.9,239.09L251.84,238.57L249.78,240.79L247.71,237.71L245.65,238.39L243.58,237.43L241.52,239.42L239.45,236.34L237.39,237.57L235.33,237.35L231.2,237.19L229.13,236.29L227.07,235.97L225,238.25L222.94,235.58L220.88,235.68L218.81,235.71L216.75,237.82L210.55,234.98L208.49,236.48L204.36,235.74L202.3,234.05L200.23,236.91L198.17,234.16L196.1,234.9L194.04,233.37L191.98,235.9L189.91,235.72L185.78,233.5L183.72,236.77L179.59,233.9L177.53,233.97L175.46,234.76L173.4,233.39L171.33,233.66L169.27,232.69L167.2,233.93L165.14,233.84L163.08,234.2L161.01,233.24L158.95,234.55L156.88,233.64L148.63,232.13L146.56,232.17L142.43,232.99L140.37,232.07L138.31,232.66L136.24,230.64L134.18,232.58L132.11,232.01L125.92,231.07L123.86,232.11L121.79,231.89L119.73,230.51L117.66,231.55L115.6,231.39L113.53,232.87L111.47,231.91L107.34,230.81L105.28,231.5L103.21,230.73L101.15,230.92L97.02,230.95L94.96,230.34L90.83,230.93L88.76,232.15L86.7,230.31L84.63,230.67L82.57,229.22L80.51,229.12L72.25,230.07L70.18,233.14L68.12,228.85L66.06,229.47L63.99,231.79L61.93,231.69L59.86,229.5L57.8,229.47L53.67,231.71L51.61,229.07L49.54,229.33L47.48,230.43L45.41,230.76L43.35,231.88L39.22,233.43L37.16,238.54L35.09,231.46L33.03,231.32L28.9,233.41L26.84,232L24.77,232.15L22.71,243.27L20.64,244.66L18.58,244.77L12.39,248.88L10.32,248.45L8.26,256.65L6.19,253.06L4.13,259.51L2.06,257.91L0,260.32" style="vector-effect: non-scaling-stroke; fill: none; stroke: rgb(233, 163, 201); stroke-opacity: 0.5; stroke-width: 2px; opacity: 1;"/></g><g class="points"/><g class="text"/></g><g class="trace scatter tracec20f1d" style="stroke-miterlimit: 2; opacity: 1;"><g class="fills"/><g class="errorbars"/><g class="lines"><path class="js-line" d="M0,242.09L2.06,240.8L4.13,241.03L6.19,239.12L8.26,239.99L10.32,229.15L12.39,228.7L22.71,224.11L24.77,213.67L35.09,213.46L37.16,215.61L39.22,214.24L41.29,213.86L43.35,213.61L45.41,210.05L51.61,209.59L53.67,210.34L59.86,209.56L61.93,210.15L66.06,209.56L68.12,209.36L70.18,210.66L72.25,209.91L82.57,209.46L84.63,209.92L103.21,209.94L105.28,210.16L109.41,210.15L111.47,210.31L115.6,210.12L117.66,209.89L121.79,210.06L123.86,210.2L127.98,209.97L130.05,210.21L156.88,210.9L158.95,211.14L163.08,211.05L165.14,210.92L181.65,211.27L183.72,211.88L185.78,210.86L187.85,211.23L191.98,211.57L194.04,210.78L200.23,211.85L202.3,210.99L208.49,211.74L210.55,211.28L216.75,212.24L218.81,211.58L222.94,211.5L225,212.36L229.13,211.71L231.2,211.98L237.39,212.09L239.45,211.68L241.52,212.69L243.58,212.09L249.78,213.22L251.84,212.49L262.16,213.02L264.22,212.49L266.29,213.48L268.35,213.03L274.55,213.54L276.61,213.13L289,214.02L291.06,214.11L295.19,213.9L297.25,214.1L299.32,214.41L301.38,213.86L307.57,214.99L309.64,214.36L317.9,214.68L319.96,214.75L326.15,214.91L328.22,215.2L344.73,215.99L346.8,216.31L352.99,217.23L355.05,216.61L357.12,218.08L359.18,217.15L369.5,218.01L371.57,218.13L375.69,218.76L377.76,218.17L379.82,218.37L381.89,219.46L388.08,218.99L390.14,220.24L394.27,219.25L396.34,219.39L398.4,220.47L400.47,219.6L404.59,220.02L406.66,221.64L410.79,220.72L412.85,220.85L414.92,221.97L416.98,221.8L431.43,222.75L433.49,223.33L435.56,224L437.62,223.47L443.82,224.34L445.88,223.81L450.01,224.81L452.07,224.77L454.14,226.16L456.2,225.29L458.27,224.59L460.33,225.51L464.46,227.01L466.52,226.46L470.65,227.56L472.71,227.76L487.16,228.97L489.23,229.93L493.36,229.46L495.42,229.88L497.49,230.95L499.55,230.48L501.61,231.56L503.68,231.15L509.87,233.07L511.94,232.62L514,232.99" style="vector-effect: non-scaling-stroke; fill: none; stroke: rgb(197, 27, 125); stroke-opacity: 1; stroke-width: 2px; opacity: 1;"/></g><g class="points"/><g class="text"/></g><g class="trace scatter traceb1800b" style="stroke-miterlimit: 2; opacity: 1;"><g class="fills"><g><path class="js-fill" d="M0,280.91L2.06,281.29L4.13,280.54L10.32,276.39L12.39,277.1L14.45,278.22L16.51,277.35L22.71,275.41L24.77,275.97L28.9,277.05L30.96,277.01L35.09,277.38L37.16,278.26L45.41,278.29L47.48,277.89L57.8,274.73L59.86,274.4L66.06,273.84L68.12,273.65L86.7,274.33L88.76,273.57L90.83,273.11L92.89,273.61L97.02,273.79L99.08,273.39L115.6,272.72L117.66,272.77L127.98,273.6L130.05,273.76L152.76,274.7L154.82,274.96L171.33,276.65L173.4,276.62L194.04,276.14L196.1,276.17L216.75,275.82L218.81,276.05L282.8,277.88L284.87,277.78L295.19,278.37L297.25,278.49L400.47,279.42L402.53,279.55L416.98,279.65L419.04,279.79L456.2,279.03L458.27,279.26L464.46,279.34L466.52,279.5L474.78,279.79L476.84,280.02L487.16,280.33L489.23,280.35L503.68,280.82L505.74,281.03L514,280.83L514,405.78L493.36,405.24L491.29,405.25L433.49,403.44L431.43,403.43L408.72,402.82L406.66,402.85L313.77,399.88L311.7,399.86L291.06,399.35L289,399.32L191.98,398.09L189.91,398.17L148.63,398.48L146.56,398.32L136.24,397.35L134.18,397.31L105.28,396.67L103.21,396.81L86.7,398.08L84.63,398.04L76.38,397.95L74.31,397.76L61.93,397.8L59.86,398.24L45.41,403.28L43.35,403.63L35.09,402.83L33.03,402.18L24.77,399.16L22.71,399.52L16.51,401.74L14.45,403.18L12.39,403.19L10.32,404.21L6.19,405.46L4.13,406.2L2.06,406.71L0,408.57Z" style="fill: rgb(175, 141, 195); fill-opacity: 0.5; stroke-width: 0;"/></g></g><g class="errorbars"/><g class="lines"><path class="js-line" d="M0,280.91L2.06,281.29L4.13,280.54L10.32,276.39L12.39,277.1L14.45,278.22L16.51,277.35L22.71,275.41L24.77,275.97L28.9,277.05L30.96,277.01L35.09,277.38L37.16,278.26L45.41,278.29L47.48,277.89L57.8,274.73L59.86,274.4L66.06,273.84L68.12,273.65L86.7,274.33L88.76,273.57L90.83,273.11L92.89,273.61L97.02,273.79L99.08,273.39L115.6,272.72L117.66,272.77L127.98,273.6L130.05,273.76L152.76,274.7L154.82,274.96L171.33,276.65L173.4,276.62L194.04,276.14L196.1,276.17L216.75,275.82L218.81,276.05L282.8,277.88L284.87,277.78L295.19,278.37L297.25,278.49L400.47,279.42L402.53,279.55L416.98,279.65L419.04,279.79L456.2,279.03L458.27,279.26L464.46,279.34L466.52,279.5L474.78,279.79L476.84,280.02L487.16,280.33L489.23,280.35L503.68,280.82L505.74,281.03L514,280.83L514,405.78L493.36,405.24L491.29,405.25L433.49,403.44L431.43,403.43L408.72,402.82L406.66,402.85L313.77,399.88L311.7,399.86L291.06,399.35L289,399.32L191.98,398.09L189.91,398.17L148.63,398.48L146.56,398.32L136.24,397.35L134.18,397.31L105.28,396.67L103.21,396.81L86.7,398.08L84.63,398.04L76.38,397.95L74.31,397.76L61.93,397.8L59.86,398.24L45.41,403.28L43.35,403.63L35.09,402.83L33.03,402.18L24.77,399.16L22.71,399.52L16.51,401.74L14.45,403.18L12.39,403.19L10.32,404.21L6.19,405.46L4.13,406.2L2.06,406.71L0,408.57" style="vector-effect: non-scaling-stroke; fill: none; stroke: rgb(175, 141, 195); stroke-opacity: 0.5; stroke-width: 2px; opacity: 1;"/></g><g class="points"/><g class="text"/></g><g class="trace scatter trace832cf7" style="stroke-miterlimit: 2; opacity: 1;"><g class="fills"/><g class="errorbars"/><g class="lines"><path class="js-line" d="M0,344.74L6.19,342.27L8.26,340.95L12.39,340.14L14.45,340.7L20.64,337.98L22.71,337.47L26.84,338.13L28.9,338.9L43.35,341.12L45.41,340.79L53.67,338.41L55.73,337.62L61.93,335.91L63.99,335.68L74.31,335.97L76.38,336.17L88.76,335.91L90.83,335.69L97.02,335.61L99.08,335.29L117.66,334.53L119.73,334.6L173.4,337.66L175.46,337.57L214.68,336.73L216.75,336.86L237.39,337.49L239.45,337.54L268.35,338.27L270.42,338.3L307.57,339.23L309.64,339.24L338.54,339.46L340.6,339.55L361.24,340.03L363.31,340L398.4,340.9L400.47,341.06L437.62,341.34L439.69,341.21L454.14,341.29L456.2,341.36L483.04,342.49L485.1,342.56L505.74,343.3L507.81,343.32L514,343.31" style="vector-effect: non-scaling-stroke; fill: none; stroke: rgb(118, 42, 131); stroke-opacity: 1; stroke-width: 2px; opacity: 1;"/></g><g class="points"/><g class="text"/></g><g class="trace scatter trace00ef39" style="stroke-miterlimit: 2; opacity: 1;"><g class="fills"><g><path class="js-fill" d="M0,402.6L2.06,395.24L4.13,384.7L8.26,374.09L10.32,377.01L14.45,382.03L16.51,382.51L18.58,383.19L20.64,383.04L24.77,376.06L26.84,370.58L37.16,333.11L39.22,328.22L55.73,287.16L57.8,281.07L63.99,265.68L66.06,262.16L72.25,245.77L74.31,240.7L78.44,233.18L80.51,230.8L82.57,229.44L84.63,229.31L107.34,231.92L109.41,231.26L121.79,228.11L123.86,228.23L127.98,228.86L130.05,229.44L132.11,229.36L134.18,230.5L142.43,229.35L144.5,228.69L150.69,225.69L152.76,225.25L154.82,223.81L156.88,223.46L161.01,222.72L163.08,222.9L167.2,222.41L169.27,222.99L181.65,225.31L183.72,225.92L194.04,228.17L196.1,229.18L202.3,229.49L204.36,229.02L208.49,228.5L210.55,227.52L231.2,221.28L233.26,221.25L237.39,220.67L239.45,221.32L249.78,222.62L251.84,222.42L268.35,219.3L270.42,219.44L276.61,220.31L278.67,220.86L286.93,223.98L289,224.73L293.12,226.62L295.19,226.81L297.25,227.77L299.32,227.61L324.09,230.28L326.15,230.65L328.22,230.64L330.28,231.4L344.73,234.22L346.8,234.2L350.92,234.94L352.99,234.92L359.18,235.65L361.24,235.62L375.69,237.57L377.76,237.39L383.95,237.71L386.02,237.12L388.08,237.31L390.14,236.56L398.4,234.7L400.47,234.15L410.79,232.92L412.85,233.14L416.98,233.51L419.04,232.72L425.24,233.61L427.3,233.22L431.43,233.67L433.49,233.96L437.62,233.86L439.69,233.34L445.88,231.73L447.94,231.02L454.14,229.47L456.2,229.24L460.33,228.52L462.39,228.81L466.52,228.61L468.59,228.72L478.91,230.38L480.97,231L485.1,230.18L487.16,231.06L497.49,228.29L499.55,228.04L511.94,227.27L514,227.68L514,404.39L511.94,404.37L495.42,403.16L493.36,403.31L478.91,403.73L476.84,403.78L441.75,402.51L439.69,402.69L419.04,402.99L416.98,402.46L404.59,402.38L402.53,402.12L379.82,402.62L377.76,402.77L305.51,396.1L303.45,395.94L282.8,397.12L280.74,397.13L264.22,397.12L262.16,396.87L247.71,396.15L245.65,396.49L239.45,397.4L237.39,397.85L227.07,397.94L225,397.94L191.98,396.64L189.91,396.9L167.2,396.17L165.14,395.88L158.95,395.35L156.88,395.12L148.63,395.88L146.56,396.33L127.98,399.79L125.92,399.89L117.66,399.44L115.6,399.29L105.28,398.44L103.21,398.19L94.96,397.48L92.89,397.3L82.57,396.67L80.51,397.04L76.38,398.54L74.31,400.11L68.12,402.11L66.06,402.12L61.93,403.21L59.86,404.45L51.61,415.34L49.54,416.77L45.41,418.98L43.35,419.72L37.16,422.92L35.09,424.84L26.84,433.6L24.77,434.82L18.58,439.63L16.51,439.88L14.45,439.82L12.39,440.8L10.32,439.49L8.26,435.96L4.13,433.8L2.06,434.52L0,437.2Z" style="fill: rgb(43, 140, 190); fill-opacity: 0.5; stroke-width: 0;"/></g></g><g class="errorbars"/><g class="lines"><path class="js-line" d="M0,402.6L2.06,395.24L4.13,384.7L8.26,374.09L10.32,377.01L14.45,382.03L16.51,382.51L18.58,383.19L20.64,383.04L24.77,376.06L26.84,370.58L37.16,333.11L39.22,328.22L55.73,287.16L57.8,281.07L63.99,265.68L66.06,262.16L72.25,245.77L74.31,240.7L78.44,233.18L80.51,230.8L82.57,229.44L84.63,229.31L107.34,231.92L109.41,231.26L121.79,228.11L123.86,228.23L127.98,228.86L130.05,229.44L132.11,229.36L134.18,230.5L142.43,229.35L144.5,228.69L150.69,225.69L152.76,225.25L154.82,223.81L156.88,223.46L161.01,222.72L163.08,222.9L167.2,222.41L169.27,222.99L181.65,225.31L183.72,225.92L194.04,228.17L196.1,229.18L202.3,229.49L204.36,229.02L208.49,228.5L210.55,227.52L231.2,221.28L233.26,221.25L237.39,220.67L239.45,221.32L249.78,222.62L251.84,222.42L268.35,219.3L270.42,219.44L276.61,220.31L278.67,220.86L286.93,223.98L289,224.73L293.12,226.62L295.19,226.81L297.25,227.77L299.32,227.61L324.09,230.28L326.15,230.65L328.22,230.64L330.28,231.4L344.73,234.22L346.8,234.2L350.92,234.94L352.99,234.92L359.18,235.65L361.24,235.62L375.69,237.57L377.76,237.39L383.95,237.71L386.02,237.12L388.08,237.31L390.14,236.56L398.4,234.7L400.47,234.15L410.79,232.92L412.85,233.14L416.98,233.51L419.04,232.72L425.24,233.61L427.3,233.22L431.43,233.67L433.49,233.96L437.62,233.86L439.69,233.34L445.88,231.73L447.94,231.02L454.14,229.47L456.2,229.24L460.33,228.52L462.39,228.81L466.52,228.61L468.59,228.72L478.91,230.38L480.97,231L485.1,230.18L487.16,231.06L497.49,228.29L499.55,228.04L511.94,227.27L514,227.68L514,404.39L511.94,404.37L495.42,403.16L493.36,403.31L478.91,403.73L476.84,403.78L441.75,402.51L439.69,402.69L419.04,402.99L416.98,402.46L404.59,402.38L402.53,402.12L379.82,402.62L377.76,402.77L305.51,396.1L303.45,395.94L282.8,397.12L280.74,397.13L264.22,397.12L262.16,396.87L247.71,396.15L245.65,396.49L239.45,397.4L237.39,397.85L227.07,397.94L225,397.94L191.98,396.64L189.91,396.9L167.2,396.17L165.14,395.88L158.95,395.35L156.88,395.12L148.63,395.88L146.56,396.33L127.98,399.79L125.92,399.89L117.66,399.44L115.6,399.29L105.28,398.44L103.21,398.19L94.96,397.48L92.89,397.3L82.57,396.67L80.51,397.04L76.38,398.54L74.31,400.11L68.12,402.11L66.06,402.12L61.93,403.21L59.86,404.45L51.61,415.34L49.54,416.77L45.41,418.98L43.35,419.72L37.16,422.92L35.09,424.84L26.84,433.6L24.77,434.82L18.58,439.63L16.51,439.88L14.45,439.82L12.39,440.8L10.32,439.49L8.26,435.96L4.13,433.8L2.06,434.52L0,437.2" style="vector-effect: non-scaling-stroke; fill: none; stroke: rgb(43, 140, 190); stroke-opacity: 0.5; stroke-width: 2px; opacity: 1;"/></g><g class="points"/><g class="text"/></g><g class="trace scatter trace5af116" style="stroke-miterlimit: 2; opacity: 1;"><g class="fills"/><g class="errorbars"/><g class="lines"><path class="js-line" d="M0,419.9L4.13,409.25L6.19,406.62L8.26,405.02L10.32,408.25L14.45,410.93L16.51,411.2L18.58,411.41L20.64,410.83L26.84,402.09L28.9,397.5L37.16,378.02L39.22,375.04L45.41,366.47L47.48,363.75L51.61,356.85L53.67,352.47L61.93,337.02L63.99,334.04L66.06,332.14L68.12,329.17L72.25,323.3L74.31,320.41L78.44,315.45L80.51,313.92L84.63,312.94L86.7,313.02L99.08,314.38L101.15,314.65L109.41,314.92L111.47,314.79L123.86,314.09L125.92,314.12L136.24,314.44L138.31,314.28L146.56,311.97L148.63,311.3L156.88,309.29L158.95,309.08L169.27,309.57L171.33,309.79L191.98,312.33L194.04,312.48L202.3,313.09L204.36,312.96L210.55,312.38L212.62,312.09L235.33,309.28L237.39,309.26L251.84,309.3L253.9,309.16L262.16,308.8L264.22,308.57L274.55,308.61L276.61,308.76L291.06,311.24L293.12,311.56L322.02,313.53L324.09,313.78L359.18,318.43L361.24,318.6L379.82,320.17L381.89,320.07L388.08,319.73L390.14,319.36L410.79,317.76L412.85,317.84L435.56,318.51L437.62,318.32L460.33,315.6L462.39,315.73L472.71,316.45L474.78,316.6L487.16,317.28L489.23,316.99L505.74,315.66L507.81,315.69L514,316.04" style="vector-effect: non-scaling-stroke; fill: none; stroke: rgb(43, 140, 190); stroke-opacity: 1; stroke-width: 2px; opacity: 1;"/></g><g class="points"/><g class="text"/></g></g></g><g class="overplot"/><path class="xlines-above crisp" d="M0,0" style="fill: none;"/><path class="ylines-above crisp" d="M0,0" style="fill: none;"/><g class="overlines-above"/><g class="xaxislayer-above"><g class="xtick"><text text-anchor="middle" x="0" y="487" transform="translate(125.15,0)" style="font-family: 'Open Sans', verdana, arial, sans-serif; font-size: 12px; fill: rgb(42, 63, 95); fill-opacity: 1; white-space: pre; opacity: 1;">50</text></g><g class="xtick"><text text-anchor="middle" x="0" y="487" style="font-family: 'Open Sans', verdana, arial, sans-serif; font-size: 12px; fill: rgb(42, 63, 95); fill-opacity: 1; white-space: pre; opacity: 1;" transform="translate(228.36,0)">100</text></g><g class="xtick"><text text-anchor="middle" x="0" y="487" style="font-family: 'Open Sans', verdana, arial, sans-serif; font-size: 12px; fill: rgb(42, 63, 95); fill-opacity: 1; white-space: pre; opacity: 1;" transform="translate(331.57,0)">150</text></g><g class="xtick"><text text-anchor="middle" x="0" y="487" style="font-family: 'Open Sans', verdana, arial, sans-serif; font-size: 12px; fill: rgb(42, 63, 95); fill-opacity: 1; white-space: pre; opacity: 1;" transform="translate(434.79,0)">200</text></g><g class="xtick"><text text-anchor="middle" x="0" y="487" style="font-family: 'Open Sans', verdana, arial, sans-serif; font-size: 12px; fill: rgb(42, 63, 95); fill-opacity: 1; white-space: pre; opacity: 1;" transform="translate(538,0)">250</text></g></g><g class="yaxislayer-above"><g class="ytick"><text text-anchor="end" x="23" y="4.199999999999999" transform="translate(0,458.78)" style="font-family: 'Open Sans', verdana, arial, sans-serif; font-size: 12px; fill: rgb(42, 63, 95); fill-opacity: 1; white-space: pre; opacity: 1;">0</text></g><g class="ytick"><text text-anchor="end" x="23" y="4.199999999999999" style="font-family: 'Open Sans', verdana, arial, sans-serif; font-size: 12px; fill: rgb(42, 63, 95); fill-opacity: 1; white-space: pre; opacity: 1;" transform="translate(0,395.87)">10</text></g><g class="ytick"><text text-anchor="end" x="23" y="4.199999999999999" style="font-family: 'Open Sans', verdana, arial, sans-serif; font-size: 12px; fill: rgb(42, 63, 95); fill-opacity: 1; white-space: pre; opacity: 1;" transform="translate(0,332.95)">20</text></g><g class="ytick"><text text-anchor="end" x="23" y="4.199999999999999" style="font-family: 'Open Sans', verdana, arial, sans-serif; font-size: 12px; fill: rgb(42, 63, 95); fill-opacity: 1; white-space: pre; opacity: 1;" transform="translate(0,270.04)">30</text></g><g class="ytick"><text text-anchor="end" x="23" y="4.199999999999999" style="font-family: 'Open Sans', verdana, arial, sans-serif; font-size: 12px; fill: rgb(42, 63, 95); fill-opacity: 1; white-space: pre; opacity: 1;" transform="translate(0,207.12)">40</text></g><g class="ytick"><text text-anchor="end" x="23" y="4.199999999999999" style="font-family: 'Open Sans', verdana, arial, sans-serif; font-size: 12px; fill: rgb(42, 63, 95); fill-opacity: 1; white-space: pre; opacity: 1;" transform="translate(0,144.21)">50</text></g><g class="ytick"><text text-anchor="end" x="23" y="4.199999999999999" style="font-family: 'Open Sans', verdana, arial, sans-serif; font-size: 12px; fill: rgb(42, 63, 95); fill-opacity: 1; white-space: pre; opacity: 1;" transform="translate(0,81.29)">60</text></g><g class="ytick"><text text-anchor="end" x="23" y="4.199999999999999" style="font-family: 'Open Sans', verdana, arial, sans-serif; font-size: 12px; fill: rgb(42, 63, 95); fill-opacity: 1; white-space: pre; opacity: 1;" transform="translate(0,18.380000000000003)">70</text></g></g><g class="overaxes-above"/></g></g><g class="polarlayer"/><g class="smithlayer"/><g class="ternarylayer"/><g class="geolayer"/><g class="funnelarealayer"/><g class="pielayer"/><g class="iciclelayer"/><g class="treemaplayer"/><g class="sunburstlayer"/><g class="glimages"/><defs id="topdefs-5c2bee"><g class="clips"/><clipPath id="legend5c2bee"><rect width="142" height="86" x="0" y="0"/></clipPath></defs><g class="layer-above"><g class="imagelayer"/><g class="shapelayer"/></g><g class="infolayer"><g class="legend" pointer-events="all" transform="translate(548.28,10)"><rect class="bg" shape-rendering="crispEdges" style="stroke: rgb(68, 68, 68); stroke-opacity: 1; fill: rgb(255, 255, 255); fill-opacity: 1; stroke-width: 0px;" width="142" height="86" x="0" y="0"/><g class="scrollbox" transform="" clip-path="url(#legend5c2bee)"><g class="groups"><g class="traces" transform="translate(0,14.5)" style="opacity: 1;"><text class="legendtext" text-anchor="start" x="40" y="4.680000000000001" style="font-family: 'Open Sans', verdana, arial, sans-serif; font-size: 12px; fill: rgb(42, 63, 95); fill-opacity: 1; white-space: pre;">Sanger (raw)</text><g class="layers" style="opacity: 1;"><g class="legendfill"/><g class="legendlines"><path class="js-line" d="M5,0h30" style="fill: none; stroke: rgb(77, 146, 33); stroke-opacity: 1; stroke-width: 2px;"/></g><g class="legendsymbols"><g class="legendpoints"/></g></g><rect class="legendtoggle" x="0" y="-9.5" width="136.0625" height="19" style="fill: rgb(0, 0, 0); fill-opacity: 0;"/></g><g class="traces" transform="translate(0,33.5)" style="opacity: 1;"><text class="legendtext" text-anchor="start" x="40" y="4.680000000000001" style="font-family: 'Open Sans', verdana, arial, sans-serif; font-size: 12px; fill: rgb(42, 63, 95); fill-opacity: 1; white-space: pre;">MiSeq</text><g class="layers" style="opacity: 1;"><g class="legendfill"/><g class="legendlines"><path class="js-line" d="M5,0h30" style="fill: none; stroke: rgb(197, 27, 125); stroke-opacity: 1; stroke-width: 2px;"/></g><g class="legendsymbols"><g class="legendpoints"/></g></g><rect class="legendtoggle" x="0" y="-9.5" width="136.0625" height="19" style="fill: rgb(0, 0, 0); fill-opacity: 0;"/></g><g class="traces" transform="translate(0,52.5)" style="opacity: 1;"><text class="legendtext" text-anchor="start" x="40" y="4.680000000000001" style="font-family: 'Open Sans', verdana, arial, sans-serif; font-size: 12px; fill: rgb(42, 63, 95); fill-opacity: 1; white-space: pre;">Nanopore (R9.4)</text><g class="layers" style="opacity: 1;"><g class="legendfill"/><g class="legendlines"><path class="js-line" d="M5,0h30" style="fill: none; stroke: rgb(118, 42, 131); stroke-opacity: 1; stroke-width: 2px;"/></g><g class="legendsymbols"><g class="legendpoints"/></g></g><rect class="legendtoggle" x="0" y="-9.5" width="136.0625" height="19" style="fill: rgb(0, 0, 0); fill-opacity: 0;"/></g><g class="traces" transform="translate(0,71.5)" style="opacity: 1;"><text class="legendtext" text-anchor="start" x="40" y="4.680000000000001" style="font-family: 'Open Sans', verdana, arial, sans-serif; font-size: 12px; fill: rgb(42, 63, 95); fill-opacity: 1; white-space: pre;">Nanopore (R10.4)</text><g class="layers" style="opacity: 1;"><g class="legendfill"/><g class="legendlines"><path class="js-line" d="M5,0h30" style="fill: none; stroke: rgb(43, 140, 190); stroke-opacity: 1; stroke-width: 2px;"/></g><g class="legendsymbols"><g class="legendpoints"/></g></g><rect class="legendtoggle" x="0" y="-9.5" width="136.0625" height="19" style="fill: rgb(0, 0, 0); fill-opacity: 0;"/></g></g></g><rect class="scrollbar" rx="20" ry="3" width="0" height="0" style="fill: rgb(128, 139, 164); fill-opacity: 1;" x="0" y="0"/></g><g class="g-gtitle"/><g class="g-xtitle"/><g class="g-ytitle"/></g></svg>