<svg class="main-svg" xmlns="http://www.w3.org/2000/svg" xmlns:xlink="http://www.w3.org/1999/xlink" width="700" height="500" style="" viewBox="0 0 700 500"><rect x="0" y="0" width="700" height="500" style="fill: rgb(255, 255, 255); fill-opacity: 1;"/><defs id="defs-7d6bd6"><g class="clips"><clipPath id="clip7d6bd6xyplot" class="plotclip"><rect width="464" height="320"/></clipPath><clipPath class="axesclip" id="clip7d6bd6x"><rect x="80" y="0" width="464" height="500"/></clipPath><clipPath class="axesclip" id="clip7d6bd6y"><rect x="0" y="100" width="700" height="320"/></clipPath><clipPath class="axesclip" id="clip7d6bd6xy"><rect x="80" y="100" width="464" height="320"/></clipPath></g><g class="gradients"/><g class="patterns"/></defs><g class="bglayer"><rect class="bg" x="80" y="100" width="464" height="320" style="fill: rgb(229, 236, 246); fill-opacity: 1; stroke-width: 0;"/></g><g class="layer-below"><g class="imagelayer"/><g class="shapelayer"/></g><g class="cartesianlayer"><g class="subplot xy"><g class="layer-subplot"><g class="shapelayer"/><g class="imagelayer"/></g><g class="gridlayer"><g class="x"><path class="xgrid crisp" transform="translate(171.31,0)" d="M0,100v320" style="stroke: rgb(255, 255, 255); stroke-opacity: 1; stroke-width: 1px;"/><path class="xgrid crisp" transform="translate(264.48,0)" d="M0,100v320" style="stroke: rgb(255, 255, 255); stroke-opacity: 1; stroke-width: 1px;"/><path class="xgrid crisp" transform="translate(357.65,0)" d="M0,100v320" style="stroke: rgb(255, 255, 255); stroke-opacity: 1; stroke-width: 1px;"/><path class="xgrid crisp" transform="translate(450.83,0)" d="M0,100v320" style="stroke: rgb(255, 255, 255); stroke-opacity: 1; stroke-width: 1px;"/></g><g class="y"><path class="ygrid crisp" transform="translate(0,367.97)" d="M80,0h464" style="stroke: rgb(255, 255, 255); stroke-opacity: 1; stroke-width: 1px;"/><path class="ygrid crisp" transform="translate(0,324.26)" d="M80,0h464" style="stroke: rgb(255, 255, 255); stroke-opacity: 1; stroke-width: 1px;"/><path class="ygrid crisp" transform="translate(0,280.55)" d="M80,0h464" style="stroke: rgb(255, 255, 255); stroke-opacity: 1; stroke-width: 1px;"/><path class="ygrid crisp" transform="translate(0,236.84)" d="M80,0h464" style="stroke: rgb(255, 255, 255); stroke-opacity: 1; stroke-width: 1px;"/><path class="ygrid crisp" transform="translate(0,193.12)" d="M80,0h464" style="stroke: rgb(255, 255, 255); stroke-opacity: 1; stroke-width: 1px;"/><path class="ygrid crisp" transform="translate(0,149.41)" d="M80,0h464" style="stroke: rgb(255, 255, 255); stroke-opacity: 1; stroke-width: 1px;"/><path class="ygrid crisp" transform="translate(0,105.7)" d="M80,0h464" style="stroke: rgb(255, 255, 255); stroke-opacity: 1; stroke-width: 1px;"/></g></g><g class="zerolinelayer"><path class="yzl zl crisp" transform="translate(0,411.68)" d="M80,0h464" style="stroke: rgb(255, 255, 255); stroke-opacity: 1; stroke-width: 2px;"/></g><path class="xlines-below"/><path class="ylines-below"/><g class="overlines-below"/><g class="xaxislayer-below"/><g class="yaxislayer-below"/><g class="overaxes-below"/><g class="plot" transform="translate(80,100)" clip-path="url(#clip7d6bd6xyplot)"><g class="scatterlayer mlayer"><g class="trace scatter trace08f17c" style="stroke-miterlimit: 2; opacity: 1;"><g class="fills"><g><path class="js-fill" d="M0,273.4L1.86,283.99L3.73,284.26L11.18,272.56L13.04,267.77L14.91,263.21L16.77,256.37L22.36,231.21L24.22,222.21L29.82,191.53L31.68,181.72L35.41,162.47L37.27,152.02L44.72,114.28L46.59,109.23L57.77,81.39L59.63,78.2L61.49,75.43L63.36,70.87L67.08,63.57L68.95,61.4L70.81,60.31L72.67,56.55L74.54,53.33L76.4,51.69L80.13,47.9L81.99,46.97L83.86,46.74L85.72,45.63L89.45,43.01L91.31,40.35L98.76,36.98L100.63,36.03L102.49,35.4L104.35,33.8L108.08,30.97L109.94,31.71L113.67,31.83L115.53,31L119.26,30L121.12,28.99L124.85,27.71L126.71,28.03L130.44,27.63L132.31,27.67L143.49,28.29L145.35,27.5L149.08,26.39L150.94,26L156.53,23.28L158.39,22.01L160.26,21.19L162.12,21.2L169.57,21.25L171.44,20.73L175.16,20.64L177.03,20.56L193.8,19.16L195.66,18.64L206.84,18.91L208.71,19.14L210.57,18.51L212.43,19.61L214.3,19.79L216.16,19.19L227.34,20L229.2,19.27L234.8,19.14L236.66,18.3L244.11,18.62L245.98,18.31L253.43,17.79L255.29,17.73L262.75,17.82L264.61,17.65L279.52,16.76L281.38,17.78L286.97,17.22L288.84,17.44L292.56,17.18L294.43,17.63L296.29,18.07L298.15,17.55L314.92,17.26L316.79,17.34L320.51,17.2L322.38,17.2L326.1,17.51L327.97,17.14L331.69,17.96L333.56,17.22L337.29,16.88L339.15,17.36L341.01,16.57L342.88,17.12L344.74,16.9L346.6,17.73L361.51,18.09L363.37,18.41L370.83,18.46L372.69,18.07L389.46,16.76L391.33,17.3L400.64,17.79L402.51,17.03L409.96,16.46L411.82,16.65L421.14,16.45L423,16.92L426.73,16.73L428.59,16.71L432.32,16.37L434.18,16.64L436.05,16.99L437.91,16.53L441.64,16.82L443.5,16.68L447.23,16.42L449.09,17.07L452.82,16.86L454.68,17.14L460.27,16.63L462.14,17.3L464,17.23L464,150.99L456.55,150.81L454.68,149.55L450.96,151.52L449.09,151.27L445.37,152.69L443.5,151.67L441.64,153.26L439.78,152.46L437.91,152.93L436.05,151.68L434.18,151.93L432.32,151.34L424.87,152.33L423,151.93L421.14,151.56L419.28,152.73L415.55,149.98L413.69,149.59L408.1,149.42L406.23,150.74L404.37,152.75L402.51,152.72L400.64,153.22L398.78,152.65L396.92,152.13L395.05,152.73L393.19,151.84L391.33,152.78L387.6,154.1L385.73,155.38L382.01,154.49L380.14,154.55L378.28,154.56L376.42,156.07L374.55,156.13L372.69,154.91L370.83,156.88L368.96,157.03L365.24,157.95L363.37,156.81L361.51,156.88L359.65,155.98L357.78,156.2L355.92,154.88L354.06,155.1L352.19,154.31L348.47,153.65L346.6,152.36L339.15,149.51L337.29,150.73L333.56,152.27L331.69,151.41L327.97,152.43L326.1,152.2L320.51,151.43L318.65,151.01L314.92,150.43L313.06,150.46L311.2,151.17L309.33,150.43L305.61,150.23L303.74,150.6L301.88,150.01L300.02,151.35L296.29,150.67L294.43,151.27L292.56,152.55L290.7,152.25L288.84,150.97L286.97,151.61L283.24,151.6L281.38,151.51L279.52,152.07L277.65,151.09L272.06,150.92L270.2,150.32L266.47,151.41L264.61,150.95L260.88,152.86L259.02,153.23L257.16,153.73L255.29,153.08L253.43,153.34L251.57,151.87L249.7,153.49L247.84,153.81L245.98,153.63L244.11,154.73L242.25,154.35L240.39,155.33L238.52,155.08L236.66,156.82L234.8,156.35L232.93,157.17L229.2,158.95L227.34,158.69L223.61,160.48L221.75,159.47L218.02,159.65L216.16,159.17L210.57,157.75L208.71,156.84L206.84,154.52L204.98,154.77L203.12,153.61L201.25,153.86L197.53,154.3L195.66,154.74L191.94,155.81L190.07,155.56L188.21,156.34L186.35,155.88L182.62,156.19L180.76,158.14L177.03,159.45L175.16,160.55L173.3,161.69L171.44,161.91L167.71,162.62L165.85,163.59L163.98,163.77L162.12,165.95L158.39,168.24L156.53,171.38L154.67,173.26L152.8,176.62L150.94,177.64L149.08,179.94L143.49,182.43L141.62,181.92L137.9,181.02L136.03,180.4L128.58,174.75L126.71,174.01L124.85,172.5L122.99,173.41L117.4,175.56L115.53,177.8L113.67,176.55L111.81,180.13L109.94,180.53L108.08,180.1L104.35,184.96L102.49,185.66L100.63,188.48L98.76,189.66L96.9,190.95L95.04,193.26L93.17,193.16L91.31,196.38L85.72,201.72L83.86,201.47L81.99,201.7L80.13,203.36L78.27,204.48L76.4,207.07L72.67,211.83L70.81,214.88L67.08,218.58L65.22,222.38L55.9,246.77L54.04,249.61L50.31,257.51L48.45,262.17L42.86,276.29L41,280.86L37.27,290.62L35.41,293.53L31.68,298.15L29.82,300.27L27.95,301.46L26.09,303.56L22.36,304L20.5,303.99L16.77,302.08L14.91,300.79L13.04,300.61L11.18,299.65L9.32,299.19L7.45,300.49L3.73,300.45L1.86,301.24L0,303.4Z" style="fill: rgb(161, 215, 106); fill-opacity: 0.5; stroke-width: 0;"/></g></g><g class="errorbars"/><g class="lines"><path class="js-line" d="M0,273.4L1.86,283.99L3.73,284.26L11.18,272.56L13.04,267.77L14.91,263.21L16.77,256.37L22.36,231.21L24.22,222.21L29.82,191.53L31.68,181.72L35.41,162.47L37.27,152.02L44.72,114.28L46.59,109.23L57.77,81.39L59.63,78.2L61.49,75.43L63.36,70.87L67.08,63.57L68.95,61.4L70.81,60.31L72.67,56.55L74.54,53.33L76.4,51.69L80.13,47.9L81.99,46.97L83.86,46.74L85.72,45.63L89.45,43.01L91.31,40.35L98.76,36.98L100.63,36.03L102.49,35.4L104.35,33.8L108.08,30.97L109.94,31.71L113.67,31.83L115.53,31L119.26,30L121.12,28.99L124.85,27.71L126.71,28.03L130.44,27.63L132.31,27.67L143.49,28.29L145.35,27.5L149.08,26.39L150.94,26L156.53,23.28L158.39,22.01L160.26,21.19L162.12,21.2L169.57,21.25L171.44,20.73L175.16,20.64L177.03,20.56L193.8,19.16L195.66,18.64L206.84,18.91L208.71,19.14L210.57,18.51L212.43,19.61L214.3,19.79L216.16,19.19L227.34,20L229.2,19.27L234.8,19.14L236.66,18.3L244.11,18.62L245.98,18.31L253.43,17.79L255.29,17.73L262.75,17.82L264.61,17.65L279.52,16.76L281.38,17.78L286.97,17.22L288.84,17.44L292.56,17.18L294.43,17.63L296.29,18.07L298.15,17.55L314.92,17.26L316.79,17.34L320.51,17.2L322.38,17.2L326.1,17.51L327.97,17.14L331.69,17.96L333.56,17.22L337.29,16.88L339.15,17.36L341.01,16.57L342.88,17.12L344.74,16.9L346.6,17.73L361.51,18.09L363.37,18.41L370.83,18.46L372.69,18.07L389.46,16.76L391.33,17.3L400.64,17.79L402.51,17.03L409.96,16.46L411.82,16.65L421.14,16.45L423,16.92L426.73,16.73L428.59,16.71L432.32,16.37L434.18,16.64L436.05,16.99L437.91,16.53L441.64,16.82L443.5,16.68L447.23,16.42L449.09,17.07L452.82,16.86L454.68,17.14L460.27,16.63L462.14,17.3L464,17.23L464,150.99L456.55,150.81L454.68,149.55L450.96,151.52L449.09,151.27L445.37,152.69L443.5,151.67L441.64,153.26L439.78,152.46L437.91,152.93L436.05,151.68L434.18,151.93L432.32,151.34L424.87,152.33L423,151.93L421.14,151.56L419.28,152.73L415.55,149.98L413.69,149.59L408.1,149.42L406.23,150.74L404.37,152.75L402.51,152.72L400.64,153.22L398.78,152.65L396.92,152.13L395.05,152.73L393.19,151.84L391.33,152.78L387.6,154.1L385.73,155.38L382.01,154.49L380.14,154.55L378.28,154.56L376.42,156.07L374.55,156.13L372.69,154.91L370.83,156.88L368.96,157.03L365.24,157.95L363.37,156.81L361.51,156.88L359.65,155.98L357.78,156.2L355.92,154.88L354.06,155.1L352.19,154.31L348.47,153.65L346.6,152.36L339.15,149.51L337.29,150.73L333.56,152.27L331.69,151.41L327.97,152.43L326.1,152.2L320.51,151.43L318.65,151.01L314.92,150.43L313.06,150.46L311.2,151.17L309.33,150.43L305.61,150.23L303.74,150.6L301.88,150.01L300.02,151.35L296.29,150.67L294.43,151.27L292.56,152.55L290.7,152.25L288.84,150.97L286.97,151.61L283.24,151.6L281.38,151.51L279.52,152.07L277.65,151.09L272.06,150.92L270.2,150.32L266.47,151.41L264.61,150.95L260.88,152.86L259.02,153.23L257.16,153.73L255.29,153.08L253.43,153.34L251.57,151.87L249.7,153.49L247.84,153.81L245.98,153.63L244.11,154.73L242.25,154.35L240.39,155.33L238.52,155.08L236.66,156.82L234.8,156.35L232.93,157.17L229.2,158.95L227.34,158.69L223.61,160.48L221.75,159.47L218.02,159.65L216.16,159.17L210.57,157.75L208.71,156.84L206.84,154.52L204.98,154.77L203.12,153.61L201.25,153.86L197.53,154.3L195.66,154.74L191.94,155.81L190.07,155.56L188.21,156.34L186.35,155.88L182.62,156.19L180.76,158.14L177.03,159.45L175.16,160.55L173.3,161.69L171.44,161.91L167.71,162.62L165.85,163.59L163.98,163.77L162.12,165.95L158.39,168.24L156.53,171.38L154.67,173.26L152.8,176.62L150.94,177.64L149.08,179.94L143.49,182.43L141.62,181.92L137.9,181.02L136.03,180.4L128.58,174.75L126.71,174.01L124.85,172.5L122.99,173.41L117.4,175.56L115.53,177.8L113.67,176.55L111.81,180.13L109.94,180.53L108.08,180.1L104.35,184.96L102.49,185.66L100.63,188.48L98.76,189.66L96.9,190.95L95.04,193.26L93.17,193.16L91.31,196.38L85.72,201.72L83.86,201.47L81.99,201.7L80.13,203.36L78.27,204.48L76.4,207.07L72.67,211.83L70.81,214.88L67.08,218.58L65.22,222.38L55.9,246.77L54.04,249.61L50.31,257.51L48.45,262.17L42.86,276.29L41,280.86L37.27,290.62L35.41,293.53L31.68,298.15L29.82,300.27L27.95,301.46L26.09,303.56L22.36,304L20.5,303.99L16.77,302.08L14.91,300.79L13.04,300.61L11.18,299.65L9.32,299.19L7.45,300.49L3.73,300.45L1.86,301.24L0,303.4" style="vector-effect: non-scaling-stroke; fill: none; stroke: rgb(161, 215, 106); stroke-opacity: 0.5; stroke-width: 2px; opacity: 1;"/></g><g class="points"/><g class="text"/></g><g class="trace scatter trace68bb1e" style="stroke-miterlimit: 2; opacity: 1;"><g class="fills"/><g class="errorbars"/><g class="lines"><path class="js-line" d="M0,288.4L1.86,292.61L3.73,292.35L13.04,284.19L14.91,282L18.63,276.06L20.5,272.07L26.09,257.1L27.95,251.42L35.41,228L37.27,221.32L46.59,187.79L48.45,183.39L54.04,169.57L55.9,166.7L59.63,157.25L61.49,154.06L67.08,141.08L68.95,138.99L70.81,137.59L72.67,134.19L76.4,129.38L78.27,126.9L81.99,124.33L83.86,124.1L85.72,123.68L87.58,122.1L93.17,116.38L95.04,116.2L108.08,105.53L109.94,106.12L111.81,106.05L113.67,104.19L115.53,104.4L117.4,103.19L124.85,100.11L126.71,101.02L130.44,101.76L132.31,102.74L139.76,104.97L141.62,105L143.49,105.36L145.35,104.85L149.08,103.17L150.94,101.82L152.8,100.91L154.67,98.63L160.26,94.03L162.12,93.57L165.85,92.32L167.71,91.85L175.16,90.6L177.03,90.01L186.35,87.6L188.21,88.01L191.94,87.52L193.8,87.36L197.53,86.44L199.39,86.47L206.84,86.71L208.71,87.99L212.43,89.02L214.3,89.33L218.02,89.49L219.89,89.87L227.34,89.34L229.2,89.11L242.25,86.39L244.11,86.68L247.84,85.9L249.7,85.79L251.57,84.78L253.43,85.57L262.75,84.94L264.61,84.3L268.34,84.06L270.2,83.73L275.79,84.2L277.65,84.04L283.24,84.52L285.11,84.06L292.56,84.86L294.43,84.45L305.61,83.59L307.47,83.34L314.92,83.84L316.79,83.88L329.83,84.79L331.69,84.68L333.56,84.75L335.42,84.01L341.01,83.33L342.88,83.95L354.06,86.39L355.92,86.26L361.51,87.48L363.37,87.61L365.24,88.25L367.1,87.81L370.83,87.67L372.69,86.49L376.42,86.92L378.28,86.05L385.73,86.27L387.6,85.62L391.33,85.04L393.19,84.6L400.64,85.5L402.51,84.87L404.37,84.79L406.23,83.57L409.96,82.77L411.82,83.15L417.41,83.58L419.28,84.36L421.14,84.01L423,84.43L436.05,84.33L437.91,84.73L441.64,85.04L443.5,84.18L445.37,84.58L447.23,84.12L452.82,83.9L454.68,83.34L458.41,83.81L460.27,83.53L464,84.11" style="vector-effect: non-scaling-stroke; fill: none; stroke: rgb(77, 146, 33); stroke-opacity: 1; stroke-width: 2px; opacity: 1;"/></g><g class="points"/><g class="text"/></g><g class="trace scatter trace390da2" style="stroke-miterlimit: 2; opacity: 1;"><g class="fills"><g><path class="js-fill" d="M0,155.42L3.73,154.5L5.59,156.32L7.45,155.04L9.32,145.68L11.18,144.76L13.04,144.81L18.63,141.97L20.5,142.27L22.36,135.5L24.22,135.55L27.95,135.4L29.82,135.77L31.68,135.68L33.54,133.74L35.41,135.4L37.27,135.59L39.13,135.6L41,131.43L46.59,131.96L48.45,131.17L54.04,131.62L55.9,130.92L59.63,131.65L61.49,131.79L63.36,130.62L65.22,131.71L78.27,131.47L80.13,130.99L85.72,131.42L87.58,131.2L141.62,130.61L143.49,130.31L147.21,130.43L149.08,130.5L165.85,129.79L167.71,130.65L173.3,129.97L175.16,130.64L180.76,129.66L182.62,130.45L186.35,129.87L188.21,129.81L191.94,129.86L193.8,129.79L195.66,129.57L197.53,130.12L216.16,129.82L218.02,129.08L219.89,129.63L221.75,129.38L223.61,129.57L225.48,128.86L229.2,129.23L231.07,129.39L236.66,128.95L238.52,129.35L240.39,128.66L242.25,129.07L251.57,128.86L253.43,129.19L257.16,128.78L259.02,128.79L266.47,128.75L268.34,128.67L273.93,128.7L275.79,128.71L277.65,128.23L279.52,128.73L286.97,128.6L288.84,128.57L296.29,128.44L298.15,128.44L303.74,128.23L305.61,128.43L318.65,127.98L320.51,128.43L322.38,127.69L324.24,128.24L339.15,128.13L341.01,128.49L352.19,128.04L354.06,128.42L363.37,128.64L365.24,128.6L367.1,128.22L368.96,128.61L380.14,128.69L382.01,128.49L391.33,128.74L393.19,128.66L398.78,128.93L400.64,128.84L406.23,128.98L408.1,129.05L411.82,129.21L413.69,129.41L419.28,129.11L421.14,129.42L428.59,129.62L430.46,129.73L443.5,130.21L445.37,130.27L464,131L464,192.52L462.14,191.92L460.27,192.7L456.55,190.98L454.68,190.21L452.82,190.84L450.96,189.4L449.09,190.3L447.23,188.85L443.5,188.42L441.64,189.29L437.91,187.33L436.05,186.79L434.18,187.77L432.32,187.22L430.46,186.59L428.59,186.81L423,186.3L421.14,185.02L419.28,186.09L417.41,185.46L413.69,182.43L411.82,183.61L409.96,185.14L408.1,183.04L404.37,183.1L402.51,181.66L400.64,182.66L398.78,181.64L395.05,181.35L393.19,182.37L387.6,179.75L385.73,180.37L383.87,179.92L382.01,180.31L380.14,179.2L378.28,179.55L374.55,179.76L372.69,177.92L368.96,178.28L367.1,179.52L365.24,176.9L363.37,176.55L361.51,176.21L359.65,177.83L357.78,176.07L355.92,175.83L352.19,177.76L350.33,175.65L348.47,175.29L346.6,176.03L344.74,176.68L342.88,174.81L341.01,174.42L339.15,175.6L337.29,175.65L335.42,174.62L331.69,174.09L329.83,174.89L327.97,173.69L326.1,173.76L324.24,173.27L322.38,175.1L320.51,172.33L318.65,173.63L316.79,172.37L314.92,172.36L305.61,171.02L303.74,171.43L294.43,169.77L292.56,170.04L290.7,169.32L288.84,169.6L285.11,170.02L283.24,169.06L281.38,169.46L279.52,168.89L277.65,170.27L275.79,168.64L272.06,167.98L270.2,169.21L264.61,167.85L262.75,168.73L255.29,168.16L253.43,166.53L251.57,167.4L249.7,166.85L247.84,167.72L245.98,167.01L244.11,167.26L242.25,166.71L240.39,167.75L238.52,165.68L236.66,166.81L234.8,166.56L232.93,166.55L231.07,165.49L229.2,165.99L227.34,165.63L225.48,167.17L223.61,165.04L221.75,165.51L219.89,164.84L218.02,166.22L216.16,164.09L214.3,164.94L212.43,164.78L208.71,164.68L206.84,164.05L204.98,163.83L203.12,165.41L201.25,163.56L199.39,163.63L197.53,163.65L195.66,165.11L190.07,163.14L188.21,164.18L184.48,163.67L182.62,162.49L180.76,164.48L178.89,162.57L177.03,163.08L175.16,162.02L173.3,163.78L171.44,163.65L167.71,162.11L165.85,164.39L162.12,162.39L160.26,162.43L158.39,162.98L156.53,162.04L154.67,162.22L152.8,161.55L150.94,162.41L149.08,162.35L147.21,162.59L145.35,161.93L143.49,162.84L141.62,162.21L132.31,161.19L130.44,161.59L128.58,161.76L126.71,161.12L124.85,161.53L122.99,160.12L121.12,161.47L119.26,161.07L113.67,160.43L111.81,161.15L109.94,160.99L108.08,160.03L106.22,160.76L104.35,160.64L102.49,161.68L100.63,161L96.9,160.24L95.04,160.72L91.31,160.32L89.45,160.46L81.99,160.32L80.13,161.17L78.27,159.89L76.4,160.14L74.54,159.14L72.67,159.07L65.22,159.73L63.36,161.86L61.49,158.88L59.63,159.31L57.77,160.92L55.9,160.85L54.04,159.34L52.18,159.31L48.45,160.87L46.59,159.03L41,160.2L39.13,160.99L35.41,162.06L33.54,165.62L31.68,160.7L29.82,160.6L26.09,162.05L24.22,161.07L22.36,161.17L20.5,168.9L18.63,169.87L16.77,169.94L11.18,172.8L9.32,172.5L7.45,178.2L5.59,175.7L3.73,180.18L1.86,179.07L0,180.74Z" style="fill: rgb(233, 163, 201); fill-opacity: 0.5; stroke-width: 0;"/></g></g><g class="errorbars"/><g class="lines"><path class="js-line" d="M0,155.42L3.73,154.5L5.59,156.32L7.45,155.04L9.32,145.68L11.18,144.76L13.04,144.81L18.63,141.97L20.5,142.27L22.36,135.5L24.22,135.55L27.95,135.4L29.82,135.77L31.68,135.68L33.54,133.74L35.41,135.4L37.27,135.59L39.13,135.6L41,131.43L46.59,131.96L48.45,131.17L54.04,131.62L55.9,130.92L59.63,131.65L61.49,131.79L63.36,130.62L65.22,131.71L78.27,131.47L80.13,130.99L85.72,131.42L87.58,131.2L141.62,130.61L143.49,130.31L147.21,130.43L149.08,130.5L165.85,129.79L167.71,130.65L173.3,129.97L175.16,130.64L180.76,129.66L182.62,130.45L186.35,129.87L188.21,129.81L191.94,129.86L193.8,129.79L195.66,129.57L197.53,130.12L216.16,129.82L218.02,129.08L219.89,129.63L221.75,129.38L223.61,129.57L225.48,128.86L229.2,129.23L231.07,129.39L236.66,128.95L238.52,129.35L240.39,128.66L242.25,129.07L251.57,128.86L253.43,129.19L257.16,128.78L259.02,128.79L266.47,128.75L268.34,128.67L273.93,128.7L275.79,128.71L277.65,128.23L279.52,128.73L286.97,128.6L288.84,128.57L296.29,128.44L298.15,128.44L303.74,128.23L305.61,128.43L318.65,127.98L320.51,128.43L322.38,127.69L324.24,128.24L339.15,128.13L341.01,128.49L352.19,128.04L354.06,128.42L363.37,128.64L365.24,128.6L367.1,128.22L368.96,128.61L380.14,128.69L382.01,128.49L391.33,128.74L393.19,128.66L398.78,128.93L400.64,128.84L406.23,128.98L408.1,129.05L411.82,129.21L413.69,129.41L419.28,129.11L421.14,129.42L428.59,129.62L430.46,129.73L443.5,130.21L445.37,130.27L464,131L464,192.52L462.14,191.92L460.27,192.7L456.55,190.98L454.68,190.21L452.82,190.84L450.96,189.4L449.09,190.3L447.23,188.85L443.5,188.42L441.64,189.29L437.91,187.33L436.05,186.79L434.18,187.77L432.32,187.22L430.46,186.59L428.59,186.81L423,186.3L421.14,185.02L419.28,186.09L417.41,185.46L413.69,182.43L411.82,183.61L409.96,185.14L408.1,183.04L404.37,183.1L402.51,181.66L400.64,182.66L398.78,181.64L395.05,181.35L393.19,182.37L387.6,179.75L385.73,180.37L383.87,179.92L382.01,180.31L380.14,179.2L378.28,179.55L374.55,179.76L372.69,177.92L368.96,178.28L367.1,179.52L365.24,176.9L363.37,176.55L361.51,176.21L359.65,177.83L357.78,176.07L355.92,175.83L352.19,177.76L350.33,175.65L348.47,175.29L346.6,176.03L344.74,176.68L342.88,174.81L341.01,174.42L339.15,175.6L337.29,175.65L335.42,174.62L331.69,174.09L329.83,174.89L327.97,173.69L326.1,173.76L324.24,173.27L322.38,175.1L320.51,172.33L318.65,173.63L316.79,172.37L314.92,172.36L305.61,171.02L303.74,171.43L294.43,169.77L292.56,170.04L290.7,169.32L288.84,169.6L285.11,170.02L283.24,169.06L281.38,169.46L279.52,168.89L277.65,170.27L275.79,168.64L272.06,167.98L270.2,169.21L264.61,167.85L262.75,168.73L255.29,168.16L253.43,166.53L251.57,167.4L249.7,166.85L247.84,167.72L245.98,167.01L244.11,167.26L242.25,166.71L240.39,167.75L238.52,165.68L236.66,166.81L234.8,166.56L232.93,166.55L231.07,165.49L229.2,165.99L227.34,165.63L225.48,167.17L223.61,165.04L221.75,165.51L219.89,164.84L218.02,166.22L216.16,164.09L214.3,164.94L212.43,164.78L208.71,164.68L206.84,164.05L204.98,163.83L203.12,165.41L201.25,163.56L199.39,163.63L197.53,163.65L195.66,165.11L190.07,163.14L188.21,164.18L184.48,163.67L182.62,162.49L180.76,164.48L178.89,162.57L177.03,163.08L175.16,162.02L173.3,163.78L171.44,163.65L167.71,162.11L165.85,164.39L162.12,162.39L160.26,162.43L158.39,162.98L156.53,162.04L154.67,162.22L152.8,161.55L150.94,162.41L149.08,162.35L147.21,162.59L145.35,161.93L143.49,162.84L141.62,162.21L132.31,161.19L130.44,161.59L128.58,161.76L126.71,161.12L124.85,161.53L122.99,160.12L121.12,161.47L119.26,161.07L113.67,160.43L111.81,161.15L109.94,160.99L108.08,160.03L106.22,160.76L104.35,160.64L102.49,161.68L100.63,161L96.9,160.24L95.04,160.72L91.31,160.32L89.45,160.46L81.99,160.32L80.13,161.17L78.27,159.89L76.4,160.14L74.54,159.14L72.67,159.07L65.22,159.73L63.36,161.86L61.49,158.88L59.63,159.31L57.77,160.92L55.9,160.85L54.04,159.34L52.18,159.31L48.45,160.87L46.59,159.03L41,160.2L39.13,160.99L35.41,162.06L33.54,165.62L31.68,160.7L29.82,160.6L26.09,162.05L24.22,161.07L22.36,161.17L20.5,168.9L18.63,169.87L16.77,169.94L11.18,172.8L9.32,172.5L7.45,178.2L5.59,175.7L3.73,180.18L1.86,179.07L0,180.74" style="vector-effect: non-scaling-stroke; fill: none; stroke: rgb(233, 163, 201); stroke-opacity: 0.5; stroke-width: 2px; opacity: 1;"/></g><g class="points"/><g class="text"/></g><g class="trace scatter trace05ca84" style="stroke-miterlimit: 2; opacity: 1;"><g class="fills"/><g class="errorbars"/><g class="lines"><path class="js-line" d="M0,168.08L1.86,167.18L3.73,167.34L5.59,166.01L7.45,166.62L9.32,159.09L11.18,158.78L20.5,155.59L22.36,148.34L31.68,148.19L33.54,149.68L37.27,148.46L39.13,148.29L41,145.82L42.86,145.76L46.59,145.5L48.45,146.02L54.04,145.48L55.9,145.89L61.49,145.34L63.36,146.24L67.08,145.63L68.95,145.61L78.27,145.68L80.13,146.08L87.58,145.77L89.45,145.83L100.63,146L102.49,146.19L108.08,145.54L109.94,145.83L121.12,146.08L122.99,145.7L128.58,146.2L130.44,146.15L139.76,146.33L141.62,146.41L149.08,146.42L150.94,146.44L156.53,146.31L158.39,146.59L163.98,146.67L165.85,147.09L167.71,146.38L169.57,146.64L173.3,146.88L175.16,146.33L180.76,147.07L182.62,146.47L188.21,146.99L190.07,146.67L195.66,147.34L197.53,146.88L216.16,146.95L218.02,147.65L221.75,147.45L223.61,147.3L225.48,148.02L227.34,147.51L247.84,148.24L249.7,147.96L262.75,148.64L264.61,148.36L281.38,148.98L283.24,148.85L286.97,149.03L288.84,149.09L298.15,149.42L300.02,149.7L316.79,150.32L318.65,150.81L320.51,150.38L322.38,151.4L324.24,150.75L326.1,150.97L335.42,151.43L337.29,151.86L342.88,151.6L344.74,152.36L350.33,152.03L352.19,152.9L357.78,152.3L359.65,153.06L363.37,152.6L365.24,152.75L367.1,153.87L368.96,153.45L372.69,153.32L374.55,154.1L380.14,153.95L382.01,154.4L389.46,154.64L391.33,155.04L393.19,155.51L395.05,155.14L408.1,156.05L409.96,157.01L413.69,155.92L415.55,156.56L419.28,157.6L421.14,157.22L424.87,157.99L426.73,158.12L439.78,158.96L441.64,159.63L445.37,159.3L447.23,159.59L449.09,160.34L450.96,160.01L452.82,160.77L454.68,160.48L462.14,161.5L464,161.76" style="vector-effect: non-scaling-stroke; fill: none; stroke: rgb(197, 27, 125); stroke-opacity: 1; stroke-width: 2px; opacity: 1;"/></g><g class="points"/><g class="text"/></g><g class="trace scatter trace57faab" style="stroke-miterlimit: 2; opacity: 1;"><g class="fills"><g><path class="js-fill" d="M0,195.05L1.86,195.32L3.73,194.79L9.32,191.91L11.18,192.4L13.04,193.18L14.91,192.58L22.36,191.62L24.22,192.09L37.27,193.43L39.13,193.46L48.45,191.81L50.31,191.27L55.9,190.26L57.77,190.06L78.27,190.48L80.13,189.95L83.86,189.98L85.72,190.17L109.94,189.51L111.81,189.75L162.12,192.04L163.98,191.97L203.12,191.84L204.98,191.91L240.39,192.76L242.25,192.87L266.47,193.29L268.34,193.37L361.51,194.01L363.37,194.11L378.28,194.27L380.14,194.24L423,194.02L424.87,194.16L464,195L464,281.81L437.91,281.23L436.05,281.18L404.37,280.16L402.51,280.22L333.56,278.84L331.69,278.73L240.39,276.89L238.52,276.93L160.26,276.71L158.39,276.84L136.03,276.89L134.17,276.74L102.49,275.14L100.63,275.29L87.58,276.01L85.72,276.24L78.27,276.45L76.4,276.43L67.08,276.23L65.22,276.16L55.9,276.26L54.04,276.57L39.13,280.31L37.27,280.28L27.95,278.72L26.09,278.32L22.36,277.2L20.5,277.46L14.91,279L13.04,280L9.32,280.72L7.45,280.92L0,283.74Z" style="fill: rgb(175, 141, 195); fill-opacity: 0.5; stroke-width: 0;"/></g></g><g class="errorbars"/><g class="lines"><path class="js-line" d="M0,195.05L1.86,195.32L3.73,194.79L9.32,191.91L11.18,192.4L13.04,193.18L14.91,192.58L22.36,191.62L24.22,192.09L37.27,193.43L39.13,193.46L48.45,191.81L50.31,191.27L55.9,190.26L57.77,190.06L78.27,190.48L80.13,189.95L83.86,189.98L85.72,190.17L109.94,189.51L111.81,189.75L162.12,192.04L163.98,191.97L203.12,191.84L204.98,191.91L240.39,192.76L242.25,192.87L266.47,193.29L268.34,193.37L361.51,194.01L363.37,194.11L378.28,194.27L380.14,194.24L423,194.02L424.87,194.16L464,195L464,281.81L437.91,281.23L436.05,281.18L404.37,280.16L402.51,280.22L333.56,278.84L331.69,278.73L240.39,276.89L238.52,276.93L160.26,276.71L158.39,276.84L136.03,276.89L134.17,276.74L102.49,275.14L100.63,275.29L87.58,276.01L85.72,276.24L78.27,276.45L76.4,276.43L67.08,276.23L65.22,276.16L55.9,276.26L54.04,276.57L39.13,280.31L37.27,280.28L27.95,278.72L26.09,278.32L22.36,277.2L20.5,277.46L14.91,279L13.04,280L9.32,280.72L7.45,280.92L0,283.74" style="vector-effect: non-scaling-stroke; fill: none; stroke: rgb(175, 141, 195); stroke-opacity: 0.5; stroke-width: 2px; opacity: 1;"/></g><g class="points"/><g class="text"/></g><g class="trace scatter trace7f511a" style="stroke-miterlimit: 2; opacity: 1;"><g class="fills"/><g class="errorbars"/><g class="lines"><path class="js-line" d="M0,239.4L11.18,236.2L13.04,236.59L18.63,234.7L20.5,234.34L24.22,234.81L26.09,235.34L41,236.65L42.86,236.36L54.04,233.55L55.9,233.26L65.22,233.13L67.08,233.31L78.27,233.47L80.13,233.27L100.63,232.21L102.49,232.2L162.12,234.33L163.98,234.29L214.3,234.36L216.16,234.4L260.88,235.11L262.75,235.2L285.11,235.54L286.97,235.57L393.19,237.11L395.05,237.03L409.96,237L411.82,237.05L445.37,238.11L447.23,238.18L464,238.4" style="vector-effect: non-scaling-stroke; fill: none; stroke: rgb(118, 42, 131); stroke-opacity: 1; stroke-width: 2px; opacity: 1;"/></g><g class="points"/><g class="text"/></g></g></g><g class="overplot"/><path class="xlines-above crisp" d="M0,0" style="fill: none;"/><path class="ylines-above crisp" d="M0,0" style="fill: none;"/><g class="overlines-above"/><g class="xaxislayer-above"><g class="xtick"><text text-anchor="middle" x="0" y="433" transform="translate(171.31,0)" style="font-family: 'Open Sans', verdana, arial, sans-serif; font-size: 12px; fill: rgb(42, 63, 95); fill-opacity: 1; white-space: pre; opacity: 1;">50</text></g><g class="xtick"><text text-anchor="middle" x="0" y="433" style="font-family: 'Open Sans', verdana, arial, sans-serif; font-size: 12px; fill: rgb(42, 63, 95); fill-opacity: 1; white-space: pre; opacity: 1;" transform="translate(264.48,0)">100</text></g><g class="xtick"><text text-anchor="middle" x="0" y="433" style="font-family: 'Open Sans', verdana, arial, sans-serif; font-size: 12px; fill: rgb(42, 63, 95); fill-opacity: 1; white-space: pre; opacity: 1;" transform="translate(357.65,0)">150</text></g><g class="xtick"><text text-anchor="middle" x="0" y="433" style="font-family: 'Open Sans', verdana, arial, sans-serif; font-size: 12px; fill: rgb(42, 63, 95); fill-opacity: 1; white-space: pre; opacity: 1;" transform="translate(450.83,0)">200</text></g><g class="xtick"><text text-anchor="middle" x="0" y="433" style="font-family: 'Open Sans', verdana, arial, sans-serif; font-size: 12px; fill: rgb(42, 63, 95); fill-opacity: 1; white-space: pre; opacity: 1;" transform="translate(544,0)">250</text></g></g><g class="yaxislayer-above"><g class="ytick"><text text-anchor="end" x="79" y="4.199999999999999" transform="translate(0,411.68)" style="font-family: 'Open Sans', verdana, arial, sans-serif; font-size: 12px; fill: rgb(42, 63, 95); fill-opacity: 1; white-space: pre; opacity: 1;">0</text></g><g class="ytick"><text text-anchor="end" x="79" y="4.199999999999999" style="font-family: 'Open Sans', verdana, arial, sans-serif; font-size: 12px; fill: rgb(42, 63, 95); fill-opacity: 1; white-space: pre; opacity: 1;" transform="translate(0,367.97)">10</text></g><g class="ytick"><text text-anchor="end" x="79" y="4.199999999999999" style="font-family: 'Open Sans', verdana, arial, sans-serif; font-size: 12px; fill: rgb(42, 63, 95); fill-opacity: 1; white-space: pre; opacity: 1;" transform="translate(0,324.26)">20</text></g><g class="ytick"><text text-anchor="end" x="79" y="4.199999999999999" style="font-family: 'Open Sans', verdana, arial, sans-serif; font-size: 12px; fill: rgb(42, 63, 95); fill-opacity: 1; white-space: pre; opacity: 1;" transform="translate(0,280.55)">30</text></g><g class="ytick"><text text-anchor="end" x="79" y="4.199999999999999" style="font-family: 'Open Sans', verdana, arial, sans-serif; font-size: 12px; fill: rgb(42, 63, 95); fill-opacity: 1; white-space: pre; opacity: 1;" transform="translate(0,236.84)">40</text></g><g class="ytick"><text text-anchor="end" x="79" y="4.199999999999999" style="font-family: 'Open Sans', verdana, arial, sans-serif; font-size: 12px; fill: rgb(42, 63, 95); fill-opacity: 1; white-space: pre; opacity: 1;" transform="translate(0,193.12)">50</text></g><g class="ytick"><text text-anchor="end" x="79" y="4.199999999999999" style="font-family: 'Open Sans', verdana, arial, sans-serif; font-size: 12px; fill: rgb(42, 63, 95); fill-opacity: 1; white-space: pre; opacity: 1;" transform="translate(0,149.41)">60</text></g><g class="ytick"><text text-anchor="end" x="79" y="4.199999999999999" style="font-family: 'Open Sans', verdana, arial, sans-serif; font-size: 12px; fill: rgb(42, 63, 95); fill-opacity: 1; white-space: pre; opacity: 1;" transform="translate(0,105.7)">70</text></g></g><g class="overaxes-above"/></g></g><g class="polarlayer"/><g class="smithlayer"/><g class="ternarylayer"/><g class="geolayer"/><g class="funnelarealayer"/><g class="pielayer"/><g class="iciclelayer"/><g class="treemaplayer"/><g class="sunburstlayer"/><g class="glimages"/><defs id="topdefs-7d6bd6"><g class="clips"/><clipPath id="legend7d6bd6"><rect width="135" height="67" x="0" y="0"/></clipPath></defs><g class="layer-above"><g class="imagelayer"/><g class="shapelayer"/></g><g class="infolayer"><g class="legend" pointer-events="all" transform="translate(553.28,100)"><rect class="bg" shape-rendering="crispEdges" style="stroke: rgb(68, 68, 68); stroke-opacity: 1; fill: rgb(255, 255, 255); fill-opacity: 1; stroke-width: 0px;" width="135" height="67" x="0" y="0"/><g class="scrollbox" transform="" clip-path="url(#legend7d6bd6)"><g class="groups"><g class="traces" transform="translate(0,14.5)" style="opacity: 1;"><text class="legendtext" text-anchor="start" x="40" y="4.680000000000001" style="font-family: 'Open Sans', verdana, arial, sans-serif; font-size: 12px; fill: rgb(42, 63, 95); fill-opacity: 1; white-space: pre;">Sanger (raw)</text><g class="layers" style="opacity: 1;"><g class="legendfill"/><g class="legendlines"><path class="js-line" d="M5,0h30" style="fill: none; stroke: rgb(77, 146, 33); stroke-opacity: 1; stroke-width: 2px;"/></g><g class="legendsymbols"><g class="legendpoints"/></g></g><rect class="legendtoggle" x="0" y="-9.5" width="129.390625" height="19" style="fill: rgb(0, 0, 0); fill-opacity: 0;"/></g><g class="traces" transform="translate(0,33.5)" style="opacity: 1;"><text class="legendtext" text-anchor="start" x="40" y="4.680000000000001" style="font-family: 'Open Sans', verdana, arial, sans-serif; font-size: 12px; fill: rgb(42, 63, 95); fill-opacity: 1; white-space: pre;">MiSeq</text><g class="layers" style="opacity: 1;"><g class="legendfill"/><g class="legendlines"><path class="js-line" d="M5,0h30" style="fill: none; stroke: rgb(197, 27, 125); stroke-opacity: 1; stroke-width: 2px;"/></g><g class="legendsymbols"><g class="legendpoints"/></g></g><rect class="legendtoggle" x="0" y="-9.5" width="129.390625" height="19" style="fill: rgb(0, 0, 0); fill-opacity: 0;"/></g><g class="traces" transform="translate(0,52.5)" style="opacity: 1;"><text class="legendtext" text-anchor="start" x="40" y="4.680000000000001" style="font-family: 'Open Sans', verdana, arial, sans-serif; font-size: 12px; fill: rgb(42, 63, 95); fill-opacity: 1; white-space: pre;">Nanopore (R9.4)</text><g class="layers" style="opacity: 1;"><g class="legendfill"/><g class="legendlines"><path class="js-line" d="M5,0h30" style="fill: none; stroke: rgb(118, 42, 131); stroke-opacity: 1; stroke-width: 2px;"/></g><g class="legendsymbols"><g class="legendpoints"/></g></g><rect class="legendtoggle" x="0" y="-9.5" width="129.390625" height="19" style="fill: rgb(0, 0, 0); fill-opacity: 0;"/></g></g></g><rect class="scrollbar" rx="20" ry="3" width="0" height="0" style="fill: rgb(128, 139, 164); fill-opacity: 1;" x="0" y="0"/></g><g class="g-gtitle"/><g class="g-xtitle"/><g class="g-ytitle"/></g></svg>