<?xml version="1.0" encoding="UTF-8" standalone="no"?>
<!DOCTYPE svg PUBLIC "-//W3C//DTD SVG 1.1//EN"
 "http://www.w3.org/Graphics/SVG/1.1/DTD/svg11.dtd">
<!-- Generated by graphviz version 2.30.1 (20150306.0020)
 -->
<!-- Title: other_input_filesdag Pages: 1 -->
<svg width="187pt" height="337pt"
 viewBox="0.00 0.00 186.60 336.60" xmlns="http://www.w3.org/2000/svg" xmlns:xlink="http://www.w3.org/1999/xlink">
<g id="graph0" class="graph" transform="scale(1 1) rotate(0) translate(4 332.6)">
<title>other_input_filesdag</title>
<polygon fill="white" stroke="white" points="-4,5 -4,-332.6 183.6,-332.6 183.6,5 -4,5"/>
<!-- p0 -->
<g id="node1" class="node"><title>p0</title>
<ellipse fill="black" stroke="black" cx="103.6" cy="-310" rx="3.6" ry="3.6"/>
<text text-anchor="middle" x="50" y="-317.4" font-family="Times,serif" font-size="14.00">Channel.fromPath</text>
</g>
<!-- p1 -->
<g id="node2" class="node"><title>p1</title>
<ellipse fill="none" stroke="black" cx="103.6" cy="-250" rx="74.6146" ry="18"/>
<text text-anchor="middle" x="103.6" y="-246.3" font-family="Times,serif" font-size="14.00">map_to_reference</text>
</g>
<!-- p0&#45;&gt;p1 -->
<g id="edge1" class="edge"><title>p0&#45;&gt;p1</title>
<path fill="none" stroke="black" d="M103.6,-306.203C103.6,-301.005 103.6,-289.361 103.6,-278.101"/>
<polygon fill="black" stroke="black" points="107.1,-278.064 103.6,-268.064 100.1,-278.064 107.1,-278.064"/>
</g>
<!-- p2 -->
<g id="node3" class="node"><title>p2</title>
<ellipse fill="none" stroke="black" cx="103.6" cy="-162" rx="62.0922" ry="18"/>
<text text-anchor="middle" x="103.6" y="-158.3" font-family="Times,serif" font-size="14.00">sort_and_filter</text>
</g>
<!-- p1&#45;&gt;p2 -->
<g id="edge2" class="edge"><title>p1&#45;&gt;p2</title>
<path fill="none" stroke="black" d="M81.9028,-232.59C76.534,-227.306 71.4939,-220.986 68.6,-214 64.6138,-204.376 68.6733,-194.724 75.2537,-186.445"/>
<polygon fill="black" stroke="black" points="77.9397,-188.696 82.1549,-178.976 72.7981,-183.946 77.9397,-188.696"/>
<text text-anchor="middle" x="97.1" y="-202.3" font-family="Times,serif" font-size="14.00">sample_id</text>
</g>
<!-- p1&#45;&gt;p2 -->
<g id="edge3" class="edge"><title>p1&#45;&gt;p2</title>
<path fill="none" stroke="black" d="M116.867,-232.123C120.416,-226.649 123.772,-220.345 125.6,-214 127.569,-207.167 127.569,-204.833 125.6,-198 124.686,-194.828 123.39,-191.665 121.879,-188.612"/>
<polygon fill="black" stroke="black" points="124.879,-186.809 116.867,-179.877 118.808,-190.292 124.879,-186.809"/>
</g>
<!-- p3 -->
<g id="node4" class="node"><title>p3</title>
<ellipse fill="none" stroke="black" cx="103.6" cy="-74" rx="75.0904" ry="18"/>
<text text-anchor="middle" x="103.6" y="-70.3" font-family="Times,serif" font-size="14.00">compute_flagstats</text>
</g>
<!-- p2&#45;&gt;p3 -->
<g id="edge4" class="edge"><title>p2&#45;&gt;p3</title>
<path fill="none" stroke="black" d="M82.2693,-144.949C76.7642,-139.592 71.5597,-133.145 68.6,-126 64.6761,-116.527 68.5484,-107.025 74.9471,-98.8345"/>
<polygon fill="black" stroke="black" points="77.5452,-101.18 81.6841,-91.4268 72.3665,-96.47 77.5452,-101.18"/>
<text text-anchor="middle" x="97.1" y="-114.3" font-family="Times,serif" font-size="14.00">sample_id</text>
</g>
<!-- p2&#45;&gt;p3 -->
<g id="edge5" class="edge"><title>p2&#45;&gt;p3</title>
<path fill="none" stroke="black" d="M116.867,-144.123C120.416,-138.649 123.772,-132.345 125.6,-126 127.569,-119.167 127.569,-116.833 125.6,-110 124.686,-106.828 123.39,-103.665 121.879,-100.612"/>
<polygon fill="black" stroke="black" points="124.879,-98.8086 116.867,-91.8765 118.808,-102.292 124.879,-98.8086"/>
</g>
<!-- p4 -->
<g id="node5" class="node"><title>p4</title>
<ellipse fill="black" stroke="black" cx="103.6" cy="-2" rx="1.8" ry="1.8"/>
</g>
<!-- p3&#45;&gt;p4 -->
<g id="edge6" class="edge"><title>p3&#45;&gt;p4</title>
<path fill="none" stroke="black" d="M103.6,-55.6966C103.6,-42.6347 103.6,-25.1104 103.6,-13.9338"/>
<polygon fill="black" stroke="black" points="107.1,-13.8073 103.6,-3.8073 100.1,-13.8073 107.1,-13.8073"/>
<text text-anchor="middle" x="138.6" y="-26.3" font-family="Times,serif" font-size="14.00">flagstats_file</text>
</g>
</g>
</svg>
