<svg class="main-svg" xmlns="http://www.w3.org/2000/svg" xmlns:xlink="http://www.w3.org/1999/xlink" width="700" height="500" style="" viewBox="0 0 700 500"><rect x="0" y="0" width="700" height="500" style="fill: rgb(255, 255, 255); fill-opacity: 1;"/><defs id="defs-3c8669"><g class="clips"><clipPath id="clip3c8669xyplot" class="plotclip"><rect width="540" height="360"/></clipPath><clipPath class="axesclip" id="clip3c8669x"><rect x="80" y="0" width="540" height="500"/></clipPath><clipPath class="axesclip" id="clip3c8669y"><rect x="0" y="60" width="700" height="360"/></clipPath><clipPath class="axesclip" id="clip3c8669xy"><rect x="80" y="60" width="540" height="360"/></clipPath></g><g class="gradients"/><g class="patterns"/></defs><g class="bglayer"><rect class="bg" x="80" y="60" width="540" height="360" style="fill: rgb(229, 236, 246); fill-opacity: 1; stroke-width: 0;"/></g><g class="layer-below"><g class="imagelayer"/><g class="shapelayer"/></g><g class="cartesianlayer"><g class="subplot xy"><g class="layer-subplot"><g class="shapelayer"/><g class="imagelayer"/></g><g class="gridlayer"><g class="x"><path class="xgrid crisp" transform="translate(84.22,0)" d="M0,60v360" style="stroke: rgb(255, 255, 255); stroke-opacity: 1; stroke-width: 1px;"/><path class="xgrid crisp" transform="translate(234.8,0)" d="M0,60v360" style="stroke: rgb(255, 255, 255); stroke-opacity: 1; stroke-width: 1px;"/><path class="xgrid crisp" transform="translate(385.39,0)" d="M0,60v360" style="stroke: rgb(255, 255, 255); stroke-opacity: 1; stroke-width: 1px;"/><path class="xgrid crisp" transform="translate(535.97,0)" d="M0,60v360" style="stroke: rgb(255, 255, 255); stroke-opacity: 1; stroke-width: 1px;"/></g><g class="y"><path class="ygrid crisp" transform="translate(0,379.19)" d="M80,0h540" style="stroke: rgb(255, 255, 255); stroke-opacity: 1; stroke-width: 1px;"/><path class="ygrid crisp" transform="translate(0,338.38)" d="M80,0h540" style="stroke: rgb(255, 255, 255); stroke-opacity: 1; stroke-width: 1px;"/><path class="ygrid crisp" transform="translate(0,297.57)" d="M80,0h540" style="stroke: rgb(255, 255, 255); stroke-opacity: 1; stroke-width: 1px;"/><path class="ygrid crisp" transform="translate(0,256.75)" d="M80,0h540" style="stroke: rgb(255, 255, 255); stroke-opacity: 1; stroke-width: 1px;"/><path class="ygrid crisp" transform="translate(0,215.94)" d="M80,0h540" style="stroke: rgb(255, 255, 255); stroke-opacity: 1; stroke-width: 1px;"/><path class="ygrid crisp" transform="translate(0,175.13)" d="M80,0h540" style="stroke: rgb(255, 255, 255); stroke-opacity: 1; stroke-width: 1px;"/><path class="ygrid crisp" transform="translate(0,134.32)" d="M80,0h540" style="stroke: rgb(255, 255, 255); stroke-opacity: 1; stroke-width: 1px;"/><path class="ygrid crisp" transform="translate(0,93.50999999999999)" d="M80,0h540" style="stroke: rgb(255, 255, 255); stroke-opacity: 1; stroke-width: 1px;"/></g></g><g class="zerolinelayer"><path class="yzl zl crisp" transform="translate(0,420)" d="M80,0h540" style="stroke: rgb(255, 255, 255); stroke-opacity: 1; stroke-width: 2px;"/></g><path class="xlines-below"/><path class="ylines-below"/><g class="overlines-below"/><g class="xaxislayer-below"/><g class="yaxislayer-below"/><g class="overaxes-below"/><g class="plot" transform="translate(80,60)" clip-path="url(#clip3c8669xyplot)"><g class="scatterlayer mlayer"><g class="trace scatter traced5f380" style="stroke-miterlimit: 2;"><g class="fills"><g><path class="js-fill" d="M540,360L0,360L0,352.04L2.41,351.63L2.71,357.76L3.61,338.57L3.92,338.37L6.32,338.17L6.63,337.55L9.64,335.11L9.94,334.49L11.14,333.88L11.44,332.04L11.75,332.25L12.05,330.82L12.95,328.78L13.25,328.78L13.55,328.17L13.85,304.5L14.46,303.88L14.76,303.68L15.96,302.66L16.26,302.66L17.47,302.25L17.77,302.25L18.07,302.86L18.67,302.46L18.97,302.25L19.88,300.21L20.18,300.21L20.78,300.21L21.08,284.09L22.89,283.48L23.19,283.68L23.79,283.27L24.09,285.11L24.39,295.11L24.7,289.4L25,244.1L25.9,241.24L26.2,241.65L27.11,76.36L27.41,75.14L27.71,75.14L28.01,74.32L28.91,74.12L29.21,74.52L30.72,72.89L31.02,54.93L31.32,55.14L31.62,54.53L31.92,54.32L32.23,54.32L32.53,50.85L33.13,49.63L33.43,43.1L34.03,41.67L34.33,43.1L34.63,42.89L34.94,46.57L35.54,44.73L35.84,54.12L36.14,64.93L36.74,64.53L37.04,64.12L38.25,61.67L38.55,61.87L38.85,62.89L39.15,56.16L40.36,52.49L40.66,54.12L40.96,53.71L41.26,55.75L41.86,62.89L42.16,62.69L42.47,62.08L42.77,63.91L43.07,62.48L43.37,61.87L43.67,61.87L43.97,61.06L46.38,55.75L46.68,56.36L46.98,56.97L47.28,55.34L47.59,66.77L47.89,128.19L48.49,275.93L48.79,270.83L49.09,270.01L49.39,269.81L49.69,268.58L52.1,262.46L52.4,262.26L53.31,248.18L53.61,202.67L54.81,103.09L55.11,100.85L56.02,109.42L56.62,108.81L56.92,105.74L58.13,103.3L58.43,98.4L59.33,69.22L59.63,69.42L59.93,67.59L60.23,66.57L60.54,67.38L60.84,69.01L61.14,67.59L61.44,69.83L62.04,68.81L62.34,66.16L63.55,61.67L63.85,61.06L64.15,58.81L64.45,60.24L64.75,60.24L65.66,63.1L65.96,89.62L66.86,89.83L67.16,64.12L68.67,62.08L68.97,62.48L69.57,62.89L69.87,43.3L70.47,34.94L70.78,35.34L71.08,35.14L72.58,22.9L72.88,21.67L73.79,18.41L74.09,18.82L74.39,18L74.69,18.41L74.99,21.67L75.9,28.61L76.2,92.89L76.5,233.69L77.1,230.63L77.4,231.85L77.7,231.85L78,232.67L78.61,233.08L78.91,220.22L79.21,220.22L79.51,216.96L80.41,208.59L80.71,207.98L81.32,208.79L81.62,212.47L82.22,228.59L82.52,220.83L82.82,222.06L84.33,221.04L84.63,218.18L85.83,240.01L86.13,226.55L87.04,219.2L87.34,223.89L88.54,230.02L88.85,221.85L90.05,221.85L90.35,221.65L91.86,228.79L92.16,250.83L92.76,245.52L93.06,245.73L93.36,246.34L93.97,246.34L94.27,222.67L96.07,210.02L96.37,202.67L98.18,190.22L98.48,191.24L99.09,191.86L99.39,209.61L100.29,195.53L100.59,194.92L101.8,189.41L102.1,190.84L104.51,173.29L105.11,173.9L105.41,174.72L106.31,182.06L106.61,197.98L107.82,174.1L108.12,172.88L109.02,169.41L109.33,176.96L111.13,183.08L111.43,182.06L111.73,180.23L112.34,180.02L112.64,181.25L113.24,176.55L113.54,176.96L113.84,180.63L114.75,185.33L115.05,179.21L115.35,179.61L115.65,178.39L115.95,177.78L116.25,171.45L117.16,185.12L117.46,184.71L117.76,184.31L118.06,183.69L118.36,188.39L118.66,189.2L118.96,193.69L119.87,197.37L120.17,247.56L121.37,246.34L121.67,250.63L121.97,250.63L122.28,234.1L122.88,232.87L123.18,226.34L123.78,224.51L124.08,224.91L124.38,224.91L124.68,225.32L124.99,211.04L125.89,209.41L126.19,209.61L126.49,209.61L127.4,208.59L127.7,209.2L128.9,217.77L129.2,235.53L130.41,215.73L130.71,212.67L131.01,212.67L131.31,211.65L131.61,213.28L131.91,212.06L132.21,211.65L133.42,206.14L133.72,203.28L134.02,201.45L134.32,202.67L134.62,203.69L135.53,202.88L135.83,204.51L136.13,201.45L136.73,202.67L137.03,203.28L137.33,207.77L137.94,205.73L138.24,206.96L138.84,203.9L139.14,204.92L139.44,207.98L140.04,207.98L140.35,209.61L140.65,209.61L140.95,212.67L141.25,212.47L141.55,216.75L142.15,218.59L142.45,256.34L143.36,256.75L143.66,233.48L144.26,232.26L144.56,227.57L145.16,227.77L145.47,226.95L145.77,226.95L146.07,227.77L147.27,217.57L147.57,216.96L148.78,207.57L149.08,210.22L149.38,214.71L149.68,214.1L149.98,214.92L150.28,215.32L150.89,214.51L151.19,214.92L151.49,221.85L151.79,223.08L152.39,222.67L152.69,222.47L153.3,225.32L153.6,217.16L155.1,226.34L155.4,226.14L155.71,227.16L156.01,225.32L157.21,215.32L157.51,215.73L158.72,223.69L159.02,223.28L159.32,223.28L159.62,224.3L160.22,226.14L160.52,225.32L160.83,224.91L161.13,221.65L161.73,222.67L162.03,226.14L162.33,227.77L162.63,226.34L162.93,226.14L163.54,220.02L163.84,221.45L164.14,221.24L165.04,220.63L165.34,221.65L165.64,221.65L165.95,222.87L167.15,227.97L167.45,228.79L168.05,230.02L168.35,229.81L168.66,229.2L170.76,227.36L171.07,227.77L172.27,234.91L172.57,245.73L174.08,240.01L174.38,240.01L174.68,238.59L174.98,238.79L175.28,239.61L175.88,241.24L176.19,269.4L177.39,257.77L177.69,256.95L178.29,255.93L178.59,259.2L179.2,268.58L179.5,268.17L179.8,267.97L181,270.62L181.31,269.4L181.91,272.46L182.21,272.26L182.51,270.83L183.71,269.81L184.02,270.83L185.22,272.87L185.52,269.81L187.03,290.42L187.33,285.11L187.63,285.32L187.93,278.99L189.14,233.28L189.44,235.53L189.74,234.1L190.04,236.14L190.34,235.12L191.24,237.36L191.54,241.85L192.75,230.83L193.05,229.81L193.65,230.42L193.95,231.65L194.26,236.75L194.56,231.85L194.86,231.04L195.16,230.83L195.46,229.4L196.66,227.97L196.97,228.38L197.27,229.2L197.57,226.55L198.47,229.61L198.77,228.79L200.28,221.24L200.58,223.28L201.18,223.28L201.48,225.93L202.39,225.73L202.69,226.14L202.99,225.93L203.29,226.55L203.59,227.36L203.89,226.75L204.19,229L204.8,227.77L205.1,228.18L205.4,229.4L206.3,228.79L206.6,231.85L206.9,230.63L207.21,231.24L207.51,231.65L208.41,239.4L208.71,295.93L209.62,295.72L209.92,278.38L210.82,275.72L211.12,275.93L211.42,278.79L212.93,276.34L213.23,276.95L214.13,278.58L214.43,277.76L214.74,277.56L215.04,279.6L215.64,281.44L215.94,287.56L216.84,277.56L217.14,275.93L217.75,274.7L218.05,273.48L218.35,270.83L218.65,271.85L218.95,272.46L219.25,272.87L219.55,280.42L220.46,268.38L220.76,267.56L221.36,267.15L221.66,267.77L221.96,267.97L222.26,270.42L222.57,270.83L222.87,274.5L223.17,278.99L223.47,272.46L223.77,269.6L224.07,269.6L224.37,268.38L226.48,260.01L226.78,261.03L227.08,260.22L227.38,256.54L228.29,257.16L228.59,256.75L229.19,256.13L229.49,257.16L231,260.62L231.3,267.56L231.6,266.13L231.9,267.56L232.2,267.97L232.5,262.05L233.11,263.68L233.41,264.3L233.71,265.52L234.01,272.26L234.91,264.71L235.21,264.71L236.12,264.71L236.42,266.34L237.02,266.54L237.32,267.56L238.23,270.83L238.53,278.99L239.73,271.64L240.03,270.83L240.33,270.83L240.64,281.44L240.94,281.23L241.24,283.07L241.84,283.27L242.14,284.09L243.05,282.46L243.35,283.68L244.55,287.15L244.85,288.38L246.36,295.72L246.66,313.88L248.17,314.7L248.47,315.52L249.07,316.13L249.37,317.35L249.67,319.6L249.97,339.59L252.98,339.39L253.28,323.07L253.59,323.07L253.89,318.98L256.3,308.78L256.6,304.9L258.1,273.89L258.4,274.5L259.31,243.89L259.61,244.3L259.91,244.3L260.21,243.48L260.51,245.73L260.81,241.65L261.72,244.1L262.02,248.18L263.83,246.95L264.13,242.05L265.33,241.24L265.63,240.83L266.84,238.79L267.14,238.99L267.44,238.99L268.04,238.99L268.34,239.81L268.95,239.61L269.25,241.85L271.36,245.73L271.66,246.14L272.86,246.34L273.16,248.99L274.37,256.34L274.67,257.77L275.27,259.6L275.57,343.68L276.48,343.88L276.78,340L277.98,313.68L278.28,314.09L280.99,311.23L281.29,311.64L282.5,311.23L282.8,308.78L284.31,310.82L284.61,316.33L287.32,316.13L287.62,305.11L288.82,302.66L289.12,303.48L290.63,302.05L290.93,301.64L291.23,301.84L291.53,301.03L292.74,298.99L293.04,299.6L293.34,299.6L293.64,298.58L293.94,298.17L294.24,298.58L294.55,298.99L295.75,300.62L296.05,300.62L296.35,300.21L296.65,297.35L296.95,291.03L297.56,291.84L297.86,292.05L298.16,290.62L298.46,284.7L299.67,282.25L299.97,300.42L300.57,303.07L300.87,308.37L301.47,308.78L301.77,311.23L302.68,297.56L302.98,296.54L304.18,296.54L304.48,296.95L304.79,296.74L305.09,297.35L305.39,302.66L306.89,305.31L307.19,312.66L309.3,312.25L309.6,311.84L311.11,312.05L311.41,312.05L312.62,313.88L312.92,313.88L313.52,315.11L313.82,315.52L314.12,315.52L314.42,316.54L316.23,318.37L316.53,319.39L317.43,348.57L317.74,348.57L318.64,347.55L318.94,347.55L322.55,347.76L322.86,344.08L324.06,341.23L324.36,344.29L325.26,343.06L325.57,344.9L325.87,344.49L326.17,342.04L327.07,342.45L327.37,341.23L328.88,341.02L329.18,329.39L331.29,325.72L331.59,325.92L331.89,325.92L332.19,327.15L332.49,324.29L335.2,321.43L335.5,321.43L337.01,310.01L337.31,307.76L339.42,299.8L339.72,299.6L340.62,297.56L340.93,298.58L342.13,297.35L342.43,296.54L343.94,292.46L344.24,293.48L344.54,293.89L345.44,295.11L345.74,295.72L346.65,296.95L346.95,316.74L347.85,317.35L348.15,296.33L348.76,295.31L349.06,292.05L350.26,289.6L350.56,289.4L351.47,288.38L351.77,286.95L352.67,287.36L352.97,287.97L355.38,293.07L355.68,293.07L357.79,301.44L358.09,305.52L358.39,308.17L358.69,319.19L363.51,319.8L363.81,320.41L365.02,322.66L365.32,324.49L366.83,327.35L367.13,329.39L367.43,330L367.73,357.35L369.54,357.76L369.84,357.76L371.95,358.16L372.25,358.57L373.15,356.12L373.45,356.12L374.05,356.74L374.36,356.94L380.38,357.35L380.68,345.92L382.79,345.92L383.09,342.04L387.61,336.13L387.91,336.13L392.43,333.06L392.73,335.51L393.63,331.43L393.93,331.23L395.14,328.98L395.44,328.78L398.15,324.09L398.45,325.51L399.35,324.09L399.65,322.86L399.96,322.05L400.26,326.13L400.86,325.51L401.16,328.17L401.46,327.96L401.76,328.78L402.97,326.13L403.27,324.7L403.57,324.49L403.87,328.78L406.28,327.76L406.58,330.62L407.48,329.19L407.79,329.19L408.09,329.19L408.39,318.37L408.99,317.35L409.29,316.74L411.1,313.07L411.4,313.07L412,313.27L412.3,312.05L412.6,312.05L412.91,312.86L413.51,311.43L413.81,312.05L414.11,311.84L415.32,312.86L415.62,316.13L418.33,320L418.63,321.23L418.93,321.84L419.23,324.9L420.13,317.15L420.44,316.94L421.34,315.11L421.64,315.72L421.94,317.35L422.84,318.98L423.15,318.78L423.45,318.58L424.05,319.19L424.35,319.39L424.65,319.19L424.95,319.8L425.25,320.82L425.86,328.17L426.16,327.96L426.46,328.78L428.57,333.47L428.87,333.47L430.67,336.13L430.98,340.41L431.88,338.17L432.18,337.96L434.59,336.33L434.89,329.6L435.79,327.55L436.1,327.55L436.4,328.37L436.7,325.51L438.2,322.66L438.51,322.86L439.71,323.27L440.01,324.09L440.61,324.09L440.91,325.11L441.82,330.41L442.12,330.62L442.72,331.02L443.02,331.64L443.32,331.84L443.63,333.06L444.23,333.06L444.53,333.47L445.13,333.68L445.43,334.29L446.03,334.29L446.34,335.72L447.54,335.31L447.84,335.31L449.65,335.92L449.95,336.94L450.25,336.94L450.55,338.98L451.46,348.37L451.76,348.37L456.58,348.37L456.88,349.18L457.78,355.92L458.08,355.71L458.38,355.92L459.59,358.57L459.89,358.57L460.79,337.76L461.09,337.55L461.7,337.35L462,336.53L463.8,335.92L464.1,335.72L465.91,334.49L466.21,334.49L467.42,332.25L467.72,332.25L468.32,332.04L468.62,331.43L471.63,331.43L471.94,305.31L472.54,305.11L472.84,304.09L474.04,303.68L474.34,303.68L475.25,300.82L475.55,300.82L476.45,300.42L476.75,300.01L478.56,299.39L478.86,299.6L479.77,300.62L480.07,300.01L480.67,300.21L480.97,299.39L481.87,299.8L482.18,317.96L483.98,318.17L484.28,317.56L485.19,316.54L485.49,316.94L486.09,317.35L486.39,317.76L487.3,317.35L487.6,317.15L488.2,316.94L488.5,316.33L489.7,316.33L490.01,316.74L490.31,316.74L490.61,318.58L491.81,312.05L492.11,311.43L492.72,309.8L493.02,316.13L494.22,332.45L494.52,332.25L494.82,332.66L496.93,335.51L497.23,334.7L497.53,334.49L498.74,334.9L499.04,334.29L499.64,333.88L499.94,333.27L501.15,331.64L501.45,332.45L502.35,330.62L502.65,331.02L503.86,329.19L504.16,329.39L505.06,329.19L505.37,328.17L506.27,330.41L506.57,333.27L507.47,331.43L507.77,331.43L508.98,327.96L509.28,327.55L509.88,327.35L510.18,327.96L511.39,331.64L511.69,331.23L512.59,331.43L512.89,331.02L513.5,330.41L513.8,331.23L515,330L515.3,330.62L515.91,331.23L516.21,329.19L517.71,324.7L518.01,325.11L518.32,325.31L518.62,323.47L519.52,324.09L519.82,322.86L520.73,323.27L521.03,322.86L521.93,322.86L522.23,321.43L523.74,322.45L524.04,325.72L524.94,322.66L525.24,322.66L526.15,323.07L526.45,323.68L527.35,324.09L527.65,325.31L528.56,326.74L528.86,326.13L529.46,326.53L529.76,325.72L531.27,327.15L531.57,328.17L532.77,327.96L533.07,328.17L533.98,329.6L534.28,330.21L536.39,330.82L536.69,330.21L537.89,331.84L538.19,333.88L540,339.19" style="fill: rgb(99, 110, 250); fill-opacity: 0.5; stroke-width: 0;"/></g></g><g class="errorbars"/><g class="lines"><path class="js-line" d="M0,352.04L2.41,351.63L2.71,357.76L3.61,338.57L3.92,338.37L6.32,338.17L6.63,337.55L9.64,335.11L9.94,334.49L11.14,333.88L11.44,332.04L11.75,332.25L12.05,330.82L12.95,328.78L13.25,328.78L13.55,328.17L13.85,304.5L14.46,303.88L14.76,303.68L15.96,302.66L16.26,302.66L17.47,302.25L17.77,302.25L18.07,302.86L18.67,302.46L18.97,302.25L19.88,300.21L20.18,300.21L20.78,300.21L21.08,284.09L22.89,283.48L23.19,283.68L23.79,283.27L24.09,285.11L24.39,295.11L24.7,289.4L25,244.1L25.9,241.24L26.2,241.65L27.11,76.36L27.41,75.14L27.71,75.14L28.01,74.32L28.91,74.12L29.21,74.52L30.72,72.89L31.02,54.93L31.32,55.14L31.62,54.53L31.92,54.32L32.23,54.32L32.53,50.85L33.13,49.63L33.43,43.1L34.03,41.67L34.33,43.1L34.63,42.89L34.94,46.57L35.54,44.73L35.84,54.12L36.14,64.93L36.74,64.53L37.04,64.12L38.25,61.67L38.55,61.87L38.85,62.89L39.15,56.16L40.36,52.49L40.66,54.12L40.96,53.71L41.26,55.75L41.86,62.89L42.16,62.69L42.47,62.08L42.77,63.91L43.07,62.48L43.37,61.87L43.67,61.87L43.97,61.06L46.38,55.75L46.68,56.36L46.98,56.97L47.28,55.34L47.59,66.77L47.89,128.19L48.49,275.93L48.79,270.83L49.09,270.01L49.39,269.81L49.69,268.58L52.1,262.46L52.4,262.26L53.31,248.18L53.61,202.67L54.81,103.09L55.11,100.85L56.02,109.42L56.62,108.81L56.92,105.74L58.13,103.3L58.43,98.4L59.33,69.22L59.63,69.42L59.93,67.59L60.23,66.57L60.54,67.38L60.84,69.01L61.14,67.59L61.44,69.83L62.04,68.81L62.34,66.16L63.55,61.67L63.85,61.06L64.15,58.81L64.45,60.24L64.75,60.24L65.66,63.1L65.96,89.62L66.86,89.83L67.16,64.12L68.67,62.08L68.97,62.48L69.57,62.89L69.87,43.3L70.47,34.94L70.78,35.34L71.08,35.14L72.58,22.9L72.88,21.67L73.79,18.41L74.09,18.82L74.39,18L74.69,18.41L74.99,21.67L75.9,28.61L76.2,92.89L76.5,233.69L77.1,230.63L77.4,231.85L77.7,231.85L78,232.67L78.61,233.08L78.91,220.22L79.21,220.22L79.51,216.96L80.41,208.59L80.71,207.98L81.32,208.79L81.62,212.47L82.22,228.59L82.52,220.83L82.82,222.06L84.33,221.04L84.63,218.18L85.83,240.01L86.13,226.55L87.04,219.2L87.34,223.89L88.54,230.02L88.85,221.85L90.05,221.85L90.35,221.65L91.86,228.79L92.16,250.83L92.76,245.52L93.06,245.73L93.36,246.34L93.97,246.34L94.27,222.67L96.07,210.02L96.37,202.67L98.18,190.22L98.48,191.24L99.09,191.86L99.39,209.61L100.29,195.53L100.59,194.92L101.8,189.41L102.1,190.84L104.51,173.29L105.11,173.9L105.41,174.72L106.31,182.06L106.61,197.98L107.82,174.1L108.12,172.88L109.02,169.41L109.33,176.96L111.13,183.08L111.43,182.06L111.73,180.23L112.34,180.02L112.64,181.25L113.24,176.55L113.54,176.96L113.84,180.63L114.75,185.33L115.05,179.21L115.35,179.61L115.65,178.39L115.95,177.78L116.25,171.45L117.16,185.12L117.46,184.71L117.76,184.31L118.06,183.69L118.36,188.39L118.66,189.2L118.96,193.69L119.87,197.37L120.17,247.56L121.37,246.34L121.67,250.63L121.97,250.63L122.28,234.1L122.88,232.87L123.18,226.34L123.78,224.51L124.08,224.91L124.38,224.91L124.68,225.32L124.99,211.04L125.89,209.41L126.19,209.61L126.49,209.61L127.4,208.59L127.7,209.2L128.9,217.77L129.2,235.53L130.41,215.73L130.71,212.67L131.01,212.67L131.31,211.65L131.61,213.28L131.91,212.06L132.21,211.65L133.42,206.14L133.72,203.28L134.02,201.45L134.32,202.67L134.62,203.69L135.53,202.88L135.83,204.51L136.13,201.45L136.73,202.67L137.03,203.28L137.33,207.77L137.94,205.73L138.24,206.96L138.84,203.9L139.14,204.92L139.44,207.98L140.04,207.98L140.35,209.61L140.65,209.61L140.95,212.67L141.25,212.47L141.55,216.75L142.15,218.59L142.45,256.34L143.36,256.75L143.66,233.48L144.26,232.26L144.56,227.57L145.16,227.77L145.47,226.95L145.77,226.95L146.07,227.77L147.27,217.57L147.57,216.96L148.78,207.57L149.08,210.22L149.38,214.71L149.68,214.1L149.98,214.92L150.28,215.32L150.89,214.51L151.19,214.92L151.49,221.85L151.79,223.08L152.39,222.67L152.69,222.47L153.3,225.32L153.6,217.16L155.1,226.34L155.4,226.14L155.71,227.16L156.01,225.32L157.21,215.32L157.51,215.73L158.72,223.69L159.02,223.28L159.32,223.28L159.62,224.3L160.22,226.14L160.52,225.32L160.83,224.91L161.13,221.65L161.73,222.67L162.03,226.14L162.33,227.77L162.63,226.34L162.93,226.14L163.54,220.02L163.84,221.45L164.14,221.24L165.04,220.63L165.34,221.65L165.64,221.65L165.95,222.87L167.15,227.97L167.45,228.79L168.05,230.02L168.35,229.81L168.66,229.2L170.76,227.36L171.07,227.77L172.27,234.91L172.57,245.73L174.08,240.01L174.38,240.01L174.68,238.59L174.98,238.79L175.28,239.61L175.88,241.24L176.19,269.4L177.39,257.77L177.69,256.95L178.29,255.93L178.59,259.2L179.2,268.58L179.5,268.17L179.8,267.97L181,270.62L181.31,269.4L181.91,272.46L182.21,272.26L182.51,270.83L183.71,269.81L184.02,270.83L185.22,272.87L185.52,269.81L187.03,290.42L187.33,285.11L187.63,285.32L187.93,278.99L189.14,233.28L189.44,235.53L189.74,234.1L190.04,236.14L190.34,235.12L191.24,237.36L191.54,241.85L192.75,230.83L193.05,229.81L193.65,230.42L193.95,231.65L194.26,236.75L194.56,231.85L194.86,231.04L195.16,230.83L195.46,229.4L196.66,227.97L196.97,228.38L197.27,229.2L197.57,226.55L198.47,229.61L198.77,228.79L200.28,221.24L200.58,223.28L201.18,223.28L201.48,225.93L202.39,225.73L202.69,226.14L202.99,225.93L203.29,226.55L203.59,227.36L203.89,226.75L204.19,229L204.8,227.77L205.1,228.18L205.4,229.4L206.3,228.79L206.6,231.85L206.9,230.63L207.21,231.24L207.51,231.65L208.41,239.4L208.71,295.93L209.62,295.72L209.92,278.38L210.82,275.72L211.12,275.93L211.42,278.79L212.93,276.34L213.23,276.95L214.13,278.58L214.43,277.76L214.74,277.56L215.04,279.6L215.64,281.44L215.94,287.56L216.84,277.56L217.14,275.93L217.75,274.7L218.05,273.48L218.35,270.83L218.65,271.85L218.95,272.46L219.25,272.87L219.55,280.42L220.46,268.38L220.76,267.56L221.36,267.15L221.66,267.77L221.96,267.97L222.26,270.42L222.57,270.83L222.87,274.5L223.17,278.99L223.47,272.46L223.77,269.6L224.07,269.6L224.37,268.38L226.48,260.01L226.78,261.03L227.08,260.22L227.38,256.54L228.29,257.16L228.59,256.75L229.19,256.13L229.49,257.16L231,260.62L231.3,267.56L231.6,266.13L231.9,267.56L232.2,267.97L232.5,262.05L233.11,263.68L233.41,264.3L233.71,265.52L234.01,272.26L234.91,264.71L235.21,264.71L236.12,264.71L236.42,266.34L237.02,266.54L237.32,267.56L238.23,270.83L238.53,278.99L239.73,271.64L240.03,270.83L240.33,270.83L240.64,281.44L240.94,281.23L241.24,283.07L241.84,283.27L242.14,284.09L243.05,282.46L243.35,283.68L244.55,287.15L244.85,288.38L246.36,295.72L246.66,313.88L248.17,314.7L248.47,315.52L249.07,316.13L249.37,317.35L249.67,319.6L249.97,339.59L252.98,339.39L253.28,323.07L253.59,323.07L253.89,318.98L256.3,308.78L256.6,304.9L258.1,273.89L258.4,274.5L259.31,243.89L259.61,244.3L259.91,244.3L260.21,243.48L260.51,245.73L260.81,241.65L261.72,244.1L262.02,248.18L263.83,246.95L264.13,242.05L265.33,241.24L265.63,240.83L266.84,238.79L267.14,238.99L267.44,238.99L268.04,238.99L268.34,239.81L268.95,239.61L269.25,241.85L271.36,245.73L271.66,246.14L272.86,246.34L273.16,248.99L274.37,256.34L274.67,257.77L275.27,259.6L275.57,343.68L276.48,343.88L276.78,340L277.98,313.68L278.28,314.09L280.99,311.23L281.29,311.64L282.5,311.23L282.8,308.78L284.31,310.82L284.61,316.33L287.32,316.13L287.62,305.11L288.82,302.66L289.12,303.48L290.63,302.05L290.93,301.64L291.23,301.84L291.53,301.03L292.74,298.99L293.04,299.6L293.34,299.6L293.64,298.58L293.94,298.17L294.24,298.58L294.55,298.99L295.75,300.62L296.05,300.62L296.35,300.21L296.65,297.35L296.95,291.03L297.56,291.84L297.86,292.05L298.16,290.62L298.46,284.7L299.67,282.25L299.97,300.42L300.57,303.07L300.87,308.37L301.47,308.78L301.77,311.23L302.68,297.56L302.98,296.54L304.18,296.54L304.48,296.95L304.79,296.74L305.09,297.35L305.39,302.66L306.89,305.31L307.19,312.66L309.3,312.25L309.6,311.84L311.11,312.05L311.41,312.05L312.62,313.88L312.92,313.88L313.52,315.11L313.82,315.52L314.12,315.52L314.42,316.54L316.23,318.37L316.53,319.39L317.43,348.57L317.74,348.57L318.64,347.55L318.94,347.55L322.55,347.76L322.86,344.08L324.06,341.23L324.36,344.29L325.26,343.06L325.57,344.9L325.87,344.49L326.17,342.04L327.07,342.45L327.37,341.23L328.88,341.02L329.18,329.39L331.29,325.72L331.59,325.92L331.89,325.92L332.19,327.15L332.49,324.29L335.2,321.43L335.5,321.43L337.01,310.01L337.31,307.76L339.42,299.8L339.72,299.6L340.62,297.56L340.93,298.58L342.13,297.35L342.43,296.54L343.94,292.46L344.24,293.48L344.54,293.89L345.44,295.11L345.74,295.72L346.65,296.95L346.95,316.74L347.85,317.35L348.15,296.33L348.76,295.31L349.06,292.05L350.26,289.6L350.56,289.4L351.47,288.38L351.77,286.95L352.67,287.36L352.97,287.97L355.38,293.07L355.68,293.07L357.79,301.44L358.09,305.52L358.39,308.17L358.69,319.19L363.51,319.8L363.81,320.41L365.02,322.66L365.32,324.49L366.83,327.35L367.13,329.39L367.43,330L367.73,357.35L369.54,357.76L369.84,357.76L371.95,358.16L372.25,358.57L373.15,356.12L373.45,356.12L374.05,356.74L374.36,356.94L380.38,357.35L380.68,345.92L382.79,345.92L383.09,342.04L387.61,336.13L387.91,336.13L392.43,333.06L392.73,335.51L393.63,331.43L393.93,331.23L395.14,328.98L395.44,328.78L398.15,324.09L398.45,325.51L399.35,324.09L399.65,322.86L399.96,322.05L400.26,326.13L400.86,325.51L401.16,328.17L401.46,327.96L401.76,328.78L402.97,326.13L403.27,324.7L403.57,324.49L403.87,328.78L406.28,327.76L406.58,330.62L407.48,329.19L407.79,329.19L408.09,329.19L408.39,318.37L408.99,317.35L409.29,316.74L411.1,313.07L411.4,313.07L412,313.27L412.3,312.05L412.6,312.05L412.91,312.86L413.51,311.43L413.81,312.05L414.11,311.84L415.32,312.86L415.62,316.13L418.33,320L418.63,321.23L418.93,321.84L419.23,324.9L420.13,317.15L420.44,316.94L421.34,315.11L421.64,315.72L421.94,317.35L422.84,318.98L423.15,318.78L423.45,318.58L424.05,319.19L424.35,319.39L424.65,319.19L424.95,319.8L425.25,320.82L425.86,328.17L426.16,327.96L426.46,328.78L428.57,333.47L428.87,333.47L430.67,336.13L430.98,340.41L431.88,338.17L432.18,337.96L434.59,336.33L434.89,329.6L435.79,327.55L436.1,327.55L436.4,328.37L436.7,325.51L438.2,322.66L438.51,322.86L439.71,323.27L440.01,324.09L440.61,324.09L440.91,325.11L441.82,330.41L442.12,330.62L442.72,331.02L443.02,331.64L443.32,331.84L443.63,333.06L444.23,333.06L444.53,333.47L445.13,333.68L445.43,334.29L446.03,334.29L446.34,335.72L447.54,335.31L447.84,335.31L449.65,335.92L449.95,336.94L450.25,336.94L450.55,338.98L451.46,348.37L451.76,348.37L456.58,348.37L456.88,349.18L457.78,355.92L458.08,355.71L458.38,355.92L459.59,358.57L459.89,358.57L460.79,337.76L461.09,337.55L461.7,337.35L462,336.53L463.8,335.92L464.1,335.72L465.91,334.49L466.21,334.49L467.42,332.25L467.72,332.25L468.32,332.04L468.62,331.43L471.63,331.43L471.94,305.31L472.54,305.11L472.84,304.09L474.04,303.68L474.34,303.68L475.25,300.82L475.55,300.82L476.45,300.42L476.75,300.01L478.56,299.39L478.86,299.6L479.77,300.62L480.07,300.01L480.67,300.21L480.97,299.39L481.87,299.8L482.18,317.96L483.98,318.17L484.28,317.56L485.19,316.54L485.49,316.94L486.09,317.35L486.39,317.76L487.3,317.35L487.6,317.15L488.2,316.94L488.5,316.33L489.7,316.33L490.01,316.74L490.31,316.74L490.61,318.58L491.81,312.05L492.11,311.43L492.72,309.8L493.02,316.13L494.22,332.45L494.52,332.25L494.82,332.66L496.93,335.51L497.23,334.7L497.53,334.49L498.74,334.9L499.04,334.29L499.64,333.88L499.94,333.27L501.15,331.64L501.45,332.45L502.35,330.62L502.65,331.02L503.86,329.19L504.16,329.39L505.06,329.19L505.37,328.17L506.27,330.41L506.57,333.27L507.47,331.43L507.77,331.43L508.98,327.96L509.28,327.55L509.88,327.35L510.18,327.96L511.39,331.64L511.69,331.23L512.59,331.43L512.89,331.02L513.5,330.41L513.8,331.23L515,330L515.3,330.62L515.91,331.23L516.21,329.19L517.71,324.7L518.01,325.11L518.32,325.31L518.62,323.47L519.52,324.09L519.82,322.86L520.73,323.27L521.03,322.86L521.93,322.86L522.23,321.43L523.74,322.45L524.04,325.72L524.94,322.66L525.24,322.66L526.15,323.07L526.45,323.68L527.35,324.09L527.65,325.31L528.56,326.74L528.86,326.13L529.46,326.53L529.76,325.72L531.27,327.15L531.57,328.17L532.77,327.96L533.07,328.17L533.98,329.6L534.28,330.21L536.39,330.82L536.69,330.21L537.89,331.84L538.19,333.88L540,339.19" style="vector-effect: non-scaling-stroke; fill: none; stroke: rgb(99, 110, 250); stroke-opacity: 1; stroke-width: 2px; opacity: 1;"/></g><g class="points"/><g class="text"/></g></g></g><g class="overplot"/><path class="xlines-above crisp" d="M0,0" style="fill: none;"/><path class="ylines-above crisp" d="M0,0" style="fill: none;"/><g class="overlines-above"/><g class="xaxislayer-above"><g class="xtick"><text text-anchor="middle" x="0" y="433" transform="translate(84.22,0)" style="font-family: 'Open Sans', verdana, arial, sans-serif; font-size: 12px; fill: rgb(42, 63, 95); fill-opacity: 1; white-space: pre; opacity: 1;">95k</text></g><g class="xtick"><text text-anchor="middle" x="0" y="433" style="font-family: 'Open Sans', verdana, arial, sans-serif; font-size: 12px; fill: rgb(42, 63, 95); fill-opacity: 1; white-space: pre; opacity: 1;" transform="translate(234.8,0)">95.5k</text></g><g class="xtick"><text text-anchor="middle" x="0" y="433" style="font-family: 'Open Sans', verdana, arial, sans-serif; font-size: 12px; fill: rgb(42, 63, 95); fill-opacity: 1; white-space: pre; opacity: 1;" transform="translate(385.39,0)">96k</text></g><g class="xtick"><text text-anchor="middle" x="0" y="433" style="font-family: 'Open Sans', verdana, arial, sans-serif; font-size: 12px; fill: rgb(42, 63, 95); fill-opacity: 1; white-space: pre; opacity: 1;" transform="translate(535.97,0)">96.5k</text></g></g><g class="yaxislayer-above"><g class="ytick"><text text-anchor="end" x="79" y="4.199999999999999" transform="translate(0,420)" style="font-family: 'Open Sans', verdana, arial, sans-serif; font-size: 12px; fill: rgb(42, 63, 95); fill-opacity: 1; white-space: pre; opacity: 1;">0</text></g><g class="ytick"><text text-anchor="end" x="79" y="4.199999999999999" style="font-family: 'Open Sans', verdana, arial, sans-serif; font-size: 12px; fill: rgb(42, 63, 95); fill-opacity: 1; white-space: pre; opacity: 1;" transform="translate(0,379.19)">200</text></g><g class="ytick"><text text-anchor="end" x="79" y="4.199999999999999" style="font-family: 'Open Sans', verdana, arial, sans-serif; font-size: 12px; fill: rgb(42, 63, 95); fill-opacity: 1; white-space: pre; opacity: 1;" transform="translate(0,338.38)">400</text></g><g class="ytick"><text text-anchor="end" x="79" y="4.199999999999999" style="font-family: 'Open Sans', verdana, arial, sans-serif; font-size: 12px; fill: rgb(42, 63, 95); fill-opacity: 1; white-space: pre; opacity: 1;" transform="translate(0,297.57)">600</text></g><g class="ytick"><text text-anchor="end" x="79" y="4.199999999999999" style="font-family: 'Open Sans', verdana, arial, sans-serif; font-size: 12px; fill: rgb(42, 63, 95); fill-opacity: 1; white-space: pre; opacity: 1;" transform="translate(0,256.75)">800</text></g><g class="ytick"><text text-anchor="end" x="79" y="4.199999999999999" style="font-family: 'Open Sans', verdana, arial, sans-serif; font-size: 12px; fill: rgb(42, 63, 95); fill-opacity: 1; white-space: pre; opacity: 1;" transform="translate(0,215.94)">1000</text></g><g class="ytick"><text text-anchor="end" x="79" y="4.199999999999999" style="font-family: 'Open Sans', verdana, arial, sans-serif; font-size: 12px; fill: rgb(42, 63, 95); fill-opacity: 1; white-space: pre; opacity: 1;" transform="translate(0,175.13)">1200</text></g><g class="ytick"><text text-anchor="end" x="79" y="4.199999999999999" style="font-family: 'Open Sans', verdana, arial, sans-serif; font-size: 12px; fill: rgb(42, 63, 95); fill-opacity: 1; white-space: pre; opacity: 1;" transform="translate(0,134.32)">1400</text></g><g class="ytick"><text text-anchor="end" x="79" y="4.199999999999999" style="font-family: 'Open Sans', verdana, arial, sans-serif; font-size: 12px; fill: rgb(42, 63, 95); fill-opacity: 1; white-space: pre; opacity: 1;" transform="translate(0,93.50999999999999)">1600</text></g></g><g class="overaxes-above"/></g></g><g class="polarlayer"/><g class="smithlayer"/><g class="ternarylayer"/><g class="geolayer"/><g class="funnelarealayer"/><g class="pielayer"/><g class="iciclelayer"/><g class="treemaplayer"/><g class="sunburstlayer"/><g class="glimages"/><defs id="topdefs-3c8669"><g class="clips"/></defs><g class="layer-above"><g class="imagelayer"/><g class="shapelayer"/></g><g class="infolayer"><g class="g-gtitle"/><g class="g-xtitle"><text class="xtitle" x="350" y="460.8" text-anchor="middle" style="font-family: 'Open Sans', verdana, arial, sans-serif; font-size: 14px; fill: rgb(42, 63, 95); opacity: 1; font-weight: normal; white-space: pre;">Position</text></g><g class="g-ytitle"><text class="ytitle" transform="rotate(-90,27.496875000000003,240)" x="27.496875000000003" y="240" text-anchor="middle" style="font-family: 'Open Sans', verdana, arial, sans-serif; font-size: 14px; fill: rgb(42, 63, 95); opacity: 1; font-weight: normal; white-space: pre;">Depth</text></g></g></svg>